<svg width="1676" height="1003" viewBox="0 0 1676 1003" fill="none" xmlns="http://www.w3.org/2000/svg">
<rect x="1.5" y="87.5022" width="148" height="88" fill="#F0F0F0" stroke="#888888"/>
<path d="M410.27 28.3477V6.84961C410.27 6.48633 410.287 6.20508 410.322 6.00586C410.369 5.80664 410.521 5.5957 410.779 5.37305C411.049 5.13867 411.436 5.02148 411.939 5.02148H419.428C420.436 5.02148 421.209 5.0332 421.748 5.05664C422.287 5.08008 422.996 5.15039 423.875 5.26758C424.766 5.38477 425.545 5.61328 426.213 5.95312C426.893 6.29297 427.508 6.72656 428.059 7.25391C429.406 8.57812 430.08 10.4121 430.08 12.7559C430.08 13.7871 429.939 14.7188 429.658 15.5508C429.389 16.3711 429.061 17.0449 428.674 17.5723C428.287 18.0996 427.771 18.5508 427.127 18.9258C426.482 19.3008 425.891 19.582 425.352 19.7695C424.824 19.9453 424.168 20.0801 423.383 20.1738C422.609 20.2676 422.012 20.3203 421.59 20.332C421.18 20.3438 420.635 20.3496 419.955 20.3496H415.385V28.3477C415.385 29.4492 414.846 30 413.768 30H411.939C411.623 30 411.359 29.9766 411.148 29.9297C410.949 29.8828 410.75 29.7305 410.551 29.4727C410.363 29.2031 410.27 28.8281 410.27 28.3477ZM415.279 17.502H420.096C421.057 17.502 421.877 17.3906 422.557 17.168C423.248 16.9336 423.77 16.6758 424.121 16.3945C424.473 16.1016 424.736 15.6973 424.912 15.1816C425.088 14.666 425.188 14.25 425.211 13.9336C425.234 13.6055 425.246 13.166 425.246 12.6152C425.223 11.6309 425.07 10.8223 424.789 10.1895C424.52 9.54492 424.104 9.08789 423.541 8.81836C422.979 8.53711 422.41 8.34961 421.836 8.25586C421.262 8.16211 420.529 8.11523 419.639 8.11523H415.314L415.279 9.45117V17.502ZM447.676 30.8262C438.875 30.8262 434.475 26.3906 434.475 17.5195C434.475 8.63672 438.904 4.19531 447.764 4.19531C449.709 4.19531 451.842 4.54102 454.162 5.23242C454.572 5.37305 454.848 5.51953 454.988 5.67188C455.059 5.8125 455.094 5.92969 455.094 6.02344C455.094 6.11719 454.918 7.14844 454.566 9.11719C454.426 9.80859 454.244 10.1602 454.021 10.1719C453.904 10.1719 453.67 10.0547 453.318 9.82031C452.967 9.57422 452.58 9.29883 452.158 8.99414C451.748 8.68945 451.139 8.41992 450.33 8.18555C449.521 7.93945 448.654 7.81641 447.729 7.81641C442.303 7.81641 439.59 11.0332 439.59 17.4668C439.59 18.8848 439.713 20.1504 439.959 21.2637C440.217 22.3652 440.639 23.3789 441.225 24.3047C441.811 25.2188 442.66 25.9277 443.773 26.4316C444.898 26.9355 446.264 27.1875 447.869 27.1875C449.041 27.1875 450.078 27.0703 450.98 26.8359C451.883 26.5898 452.527 26.3262 452.914 26.0449C453.312 25.752 453.682 25.4883 454.021 25.2539C454.361 25.0078 454.637 24.8848 454.848 24.8848C454.895 24.8848 454.936 24.8906 454.971 24.9023C455.006 24.9141 455.041 24.9375 455.076 24.9727C455.111 25.0078 455.135 25.0488 455.146 25.0957C455.158 25.1309 455.176 25.1836 455.199 25.2539C455.234 25.3242 455.258 25.3887 455.27 25.4473C455.281 25.5059 455.293 25.582 455.305 25.6758C455.316 25.7695 455.328 25.8574 455.34 25.9395C455.352 26.0098 455.363 26.1094 455.375 26.2383C455.387 26.3672 455.393 26.4668 455.393 26.5371C455.416 26.8301 455.439 27.0938 455.463 27.3281C455.486 27.5508 455.504 27.7031 455.516 27.7852C455.527 27.8672 455.533 27.9375 455.533 27.9961C455.533 28.0547 455.533 28.1133 455.533 28.1719C455.533 28.2891 455.521 28.3828 455.498 28.4531C455.475 28.5234 455.422 28.5996 455.34 28.6816C455.258 28.7637 455.199 28.8223 455.164 28.8574C455.141 28.8809 455.059 28.9277 454.918 28.998L454.672 29.1387C453.5 29.8066 452.428 30.252 451.455 30.4746C450.482 30.709 449.223 30.8262 447.676 30.8262ZM460.895 28.3828V6.74414C460.895 5.5957 461.398 5.02148 462.406 5.02148H471.055C472.473 5.02148 473.738 5.10352 474.852 5.26758C475.965 5.43164 477.113 5.77734 478.297 6.30469C479.492 6.83203 480.482 7.54688 481.268 8.44922C482.064 9.35156 482.715 10.5879 483.219 12.1582C483.723 13.7285 483.975 15.5859 483.975 17.7305C483.975 19.957 483.664 21.8789 483.043 23.4961C482.422 25.1016 481.684 26.3145 480.828 27.1348C479.973 27.9434 478.9 28.582 477.611 29.0508C476.334 29.5195 475.262 29.7949 474.395 29.877C473.539 29.959 472.555 30 471.441 30H462.564C462.037 30 461.627 29.8945 461.334 29.6836C461.041 29.4609 460.895 29.0273 460.895 28.3828ZM465.904 26.9062H469.895C471.066 26.9062 472.039 26.8652 472.812 26.7832C473.586 26.7012 474.447 26.4316 475.396 25.9746C476.346 25.5176 477.107 24.8672 477.682 24.0234C478.502 22.7812 478.93 20.9238 478.965 18.4512V18.0469C478.965 16.8984 478.936 15.9668 478.877 15.252C478.818 14.5254 478.648 13.6758 478.367 12.7031C478.098 11.7305 477.699 10.957 477.172 10.3828C476.645 9.80859 475.871 9.29883 474.852 8.85352C473.832 8.4082 472.602 8.16211 471.16 8.11523H465.939L465.904 9.15234V26.9062Z" fill="#309900"/>
<path d="M1153.27 28.3477V6.84961C1153.27 6.48633 1153.29 6.20508 1153.32 6.00586C1153.37 5.80664 1153.52 5.5957 1153.78 5.37305C1154.05 5.13867 1154.44 5.02148 1154.94 5.02148H1162.43C1163.44 5.02148 1164.21 5.0332 1164.75 5.05664C1165.29 5.08008 1166 5.15039 1166.88 5.26758C1167.77 5.38477 1168.54 5.61328 1169.21 5.95312C1169.89 6.29297 1170.51 6.72656 1171.06 7.25391C1172.41 8.57812 1173.08 10.4121 1173.08 12.7559C1173.08 13.7871 1172.94 14.7188 1172.66 15.5508C1172.39 16.3711 1172.06 17.0449 1171.67 17.5723C1171.29 18.0996 1170.77 18.5508 1170.13 18.9258C1169.48 19.3008 1168.89 19.582 1168.35 19.7695C1167.82 19.9453 1167.17 20.0801 1166.38 20.1738C1165.61 20.2676 1165.01 20.3203 1164.59 20.332C1164.18 20.3438 1163.63 20.3496 1162.96 20.3496H1158.38V28.3477C1158.38 29.4492 1157.85 30 1156.77 30H1154.94C1154.62 30 1154.36 29.9766 1154.15 29.9297C1153.95 29.8828 1153.75 29.7305 1153.55 29.4727C1153.36 29.2031 1153.27 28.8281 1153.27 28.3477ZM1158.28 17.502H1163.1C1164.06 17.502 1164.88 17.3906 1165.56 17.168C1166.25 16.9336 1166.77 16.6758 1167.12 16.3945C1167.47 16.1016 1167.74 15.6973 1167.91 15.1816C1168.09 14.666 1168.19 14.25 1168.21 13.9336C1168.23 13.6055 1168.25 13.166 1168.25 12.6152C1168.22 11.6309 1168.07 10.8223 1167.79 10.1895C1167.52 9.54492 1167.1 9.08789 1166.54 8.81836C1165.98 8.53711 1165.41 8.34961 1164.84 8.25586C1164.26 8.16211 1163.53 8.11523 1162.64 8.11523H1158.31L1158.28 9.45117V17.502ZM1190.68 30.8262C1181.88 30.8262 1177.47 26.3906 1177.47 17.5195C1177.47 8.63672 1181.9 4.19531 1190.76 4.19531C1192.71 4.19531 1194.84 4.54102 1197.16 5.23242C1197.57 5.37305 1197.85 5.51953 1197.99 5.67188C1198.06 5.8125 1198.09 5.92969 1198.09 6.02344C1198.09 6.11719 1197.92 7.14844 1197.57 9.11719C1197.43 9.80859 1197.24 10.1602 1197.02 10.1719C1196.9 10.1719 1196.67 10.0547 1196.32 9.82031C1195.97 9.57422 1195.58 9.29883 1195.16 8.99414C1194.75 8.68945 1194.14 8.41992 1193.33 8.18555C1192.52 7.93945 1191.65 7.81641 1190.73 7.81641C1185.3 7.81641 1182.59 11.0332 1182.59 17.4668C1182.59 18.8848 1182.71 20.1504 1182.96 21.2637C1183.22 22.3652 1183.64 23.3789 1184.22 24.3047C1184.81 25.2188 1185.66 25.9277 1186.77 26.4316C1187.9 26.9355 1189.26 27.1875 1190.87 27.1875C1192.04 27.1875 1193.08 27.0703 1193.98 26.8359C1194.88 26.5898 1195.53 26.3262 1195.91 26.0449C1196.31 25.752 1196.68 25.4883 1197.02 25.2539C1197.36 25.0078 1197.64 24.8848 1197.85 24.8848C1197.89 24.8848 1197.94 24.8906 1197.97 24.9023C1198.01 24.9141 1198.04 24.9375 1198.08 24.9727C1198.11 25.0078 1198.13 25.0488 1198.15 25.0957C1198.16 25.1309 1198.18 25.1836 1198.2 25.2539C1198.23 25.3242 1198.26 25.3887 1198.27 25.4473C1198.28 25.5059 1198.29 25.582 1198.3 25.6758C1198.32 25.7695 1198.33 25.8574 1198.34 25.9395C1198.35 26.0098 1198.36 26.1094 1198.38 26.2383C1198.39 26.3672 1198.39 26.4668 1198.39 26.5371C1198.42 26.8301 1198.44 27.0938 1198.46 27.3281C1198.49 27.5508 1198.5 27.7031 1198.52 27.7852C1198.53 27.8672 1198.53 27.9375 1198.53 27.9961C1198.53 28.0547 1198.53 28.1133 1198.53 28.1719C1198.53 28.2891 1198.52 28.3828 1198.5 28.4531C1198.47 28.5234 1198.42 28.5996 1198.34 28.6816C1198.26 28.7637 1198.2 28.8223 1198.16 28.8574C1198.14 28.8809 1198.06 28.9277 1197.92 28.998L1197.67 29.1387C1196.5 29.8066 1195.43 30.252 1194.46 30.4746C1193.48 30.709 1192.22 30.8262 1190.68 30.8262ZM1203.89 28.3828V6.74414C1203.89 5.5957 1204.4 5.02148 1205.41 5.02148H1214.05C1215.47 5.02148 1216.74 5.10352 1217.85 5.26758C1218.96 5.43164 1220.11 5.77734 1221.3 6.30469C1222.49 6.83203 1223.48 7.54688 1224.27 8.44922C1225.06 9.35156 1225.71 10.5879 1226.22 12.1582C1226.72 13.7285 1226.97 15.5859 1226.97 17.7305C1226.97 19.957 1226.66 21.8789 1226.04 23.4961C1225.42 25.1016 1224.68 26.3145 1223.83 27.1348C1222.97 27.9434 1221.9 28.582 1220.61 29.0508C1219.33 29.5195 1218.26 29.7949 1217.39 29.877C1216.54 29.959 1215.55 30 1214.44 30H1205.56C1205.04 30 1204.63 29.8945 1204.33 29.6836C1204.04 29.4609 1203.89 29.0273 1203.89 28.3828ZM1208.9 26.9062H1212.89C1214.07 26.9062 1215.04 26.8652 1215.81 26.7832C1216.59 26.7012 1217.45 26.4316 1218.4 25.9746C1219.35 25.5176 1220.11 24.8672 1220.68 24.0234C1221.5 22.7812 1221.93 20.9238 1221.96 18.4512V18.0469C1221.96 16.8984 1221.94 15.9668 1221.88 15.252C1221.82 14.5254 1221.65 13.6758 1221.37 12.7031C1221.1 11.7305 1220.7 10.957 1220.17 10.3828C1219.64 9.80859 1218.87 9.29883 1217.85 8.85352C1216.83 8.4082 1215.6 8.16211 1214.16 8.11523H1208.94L1208.9 9.15234V26.9062Z" fill="#309900"/>
<path d="M536.293 76.2929C535.902 76.6834 535.902 77.3166 536.293 77.7071L542.657 84.0711C543.047 84.4616 543.681 84.4616 544.071 84.0711C544.462 83.6805 544.462 83.0474 544.071 82.6569L538.414 77L544.071 71.3431C544.462 70.9526 544.462 70.3195 544.071 69.9289C543.681 69.5384 543.047 69.5384 542.657 69.9289L536.293 76.2929ZM1106.71 77.7072C1107.1 77.3166 1107.1 76.6835 1106.71 76.2929L1100.34 69.929C1099.95 69.5385 1099.32 69.5385 1098.93 69.929C1098.54 70.3195 1098.54 70.9527 1098.93 71.3432L1104.59 77L1098.93 82.6569C1098.54 83.0474 1098.54 83.6806 1098.93 84.0711C1099.32 84.4616 1099.95 84.4616 1100.34 84.0711L1106.71 77.7072ZM537 77L537 78L1106 78L1106 77L1106 76L537 76L537 77Z" fill="#888888"/>
<path d="M793.393 74V49.0215H796.627V74H793.393ZM800.529 49.0215H803.869L809.371 63.207C811.129 67.9297 812.102 70.6895 812.289 71.4863C812.43 70.5488 813.367 67.8477 815.102 63.3828L820.691 49.0215H823.486L813.66 74H810.355L800.529 49.0215ZM825.385 61.502C825.385 59.5332 825.725 57.6992 826.404 56C827.096 54.3008 827.992 52.9004 829.094 51.7988C830.195 50.6855 831.408 49.8125 832.732 49.1797C834.057 48.5469 835.363 48.2305 836.652 48.2305C837.59 48.2305 838.328 48.248 838.867 48.2832C839.406 48.3184 840.109 48.4238 840.977 48.5996C841.844 48.7754 842.781 49.0566 843.789 49.4434L843.244 52.4316C842.166 51.7871 841.199 51.3125 840.344 51.0078C839.488 50.6914 838.416 50.5332 837.127 50.5332C834.725 50.5332 832.703 51.5996 831.062 53.7324C829.434 55.8652 828.619 58.4551 828.619 61.502C828.619 64.5723 829.439 67.1738 831.08 69.3066C832.732 71.4277 834.783 72.4883 837.232 72.4883C837.689 72.4883 838.123 72.4707 838.533 72.4355C838.943 72.4004 839.289 72.3652 839.57 72.3301C839.863 72.2949 840.18 72.2188 840.52 72.1016C840.871 71.9727 841.129 71.8848 841.293 71.8379C841.469 71.791 841.715 71.6738 842.031 71.4863C842.359 71.2871 842.564 71.1641 842.646 71.1172C842.729 71.0703 842.951 70.9355 843.314 70.7129C843.678 70.4785 843.895 70.3379 843.965 70.291L844.176 72.8047C842.875 73.5781 841.756 74.0996 840.818 74.3691C839.893 74.6504 838.686 74.791 837.197 74.791C833.764 74.791 830.934 73.4727 828.707 70.8359C826.492 68.1875 825.385 65.0762 825.385 61.502Z" fill="#888888"/>
<path d="M536.293 236.293C535.902 236.683 535.902 237.317 536.293 237.707L542.657 244.071C543.047 244.462 543.681 244.462 544.071 244.071C544.462 243.681 544.462 243.047 544.071 242.657L538.414 237L544.071 231.343C544.462 230.953 544.462 230.319 544.071 229.929C543.681 229.538 543.047 229.538 542.657 229.929L536.293 236.293ZM1106.71 237.707C1107.1 237.317 1107.1 236.683 1106.71 236.293L1100.34 229.929C1099.95 229.538 1099.32 229.538 1098.93 229.929C1098.54 230.32 1098.54 230.953 1098.93 231.343L1104.59 237L1098.93 242.657C1098.54 243.047 1098.54 243.681 1098.93 244.071C1099.32 244.462 1099.95 244.462 1100.34 244.071L1106.71 237.707ZM537 237L537 238L1106 238L1106 237L1106 236L537 236L537 237Z" fill="#888888"/>
<path d="M793.393 234V209.021H796.627V234H793.393ZM800.529 209.021H803.869L809.371 223.207C811.129 227.93 812.102 230.689 812.289 231.486C812.43 230.549 813.367 227.848 815.102 223.383L820.691 209.021H823.486L813.66 234H810.355L800.529 209.021ZM825.385 221.502C825.385 219.533 825.725 217.699 826.404 216C827.096 214.301 827.992 212.9 829.094 211.799C830.195 210.686 831.408 209.812 832.732 209.18C834.057 208.547 835.363 208.23 836.652 208.23C837.59 208.23 838.328 208.248 838.867 208.283C839.406 208.318 840.109 208.424 840.977 208.6C841.844 208.775 842.781 209.057 843.789 209.443L843.244 212.432C842.166 211.787 841.199 211.312 840.344 211.008C839.488 210.691 838.416 210.533 837.127 210.533C834.725 210.533 832.703 211.6 831.062 213.732C829.434 215.865 828.619 218.455 828.619 221.502C828.619 224.572 829.439 227.174 831.08 229.307C832.732 231.428 834.783 232.488 837.232 232.488C837.689 232.488 838.123 232.471 838.533 232.436C838.943 232.4 839.289 232.365 839.57 232.33C839.863 232.295 840.18 232.219 840.52 232.102C840.871 231.973 841.129 231.885 841.293 231.838C841.469 231.791 841.715 231.674 842.031 231.486C842.359 231.287 842.564 231.164 842.646 231.117C842.729 231.07 842.951 230.936 843.314 230.713C843.678 230.479 843.895 230.338 843.965 230.291L844.176 232.805C842.875 233.578 841.756 234.1 840.818 234.369C839.893 234.65 838.686 234.791 837.197 234.791C833.764 234.791 830.934 233.473 828.707 230.836C826.492 228.188 825.385 225.076 825.385 221.502Z" fill="#888888"/>
<path d="M0.292893 76.2929C-0.097631 76.6834 -0.0976311 77.3166 0.292893 77.7071L6.65685 84.0711C7.04738 84.4616 7.68054 84.4616 8.07107 84.0711C8.46159 83.6805 8.46159 83.0474 8.07107 82.6569L2.41421 77L8.07107 71.3431C8.46159 70.9526 8.46159 70.3195 8.07107 69.9289C7.68054 69.5384 7.04738 69.5384 6.65685 69.9289L0.292893 76.2929ZM369.707 77.7071C370.098 77.3166 370.098 76.6834 369.707 76.2929L363.343 69.929C362.953 69.5384 362.319 69.5384 361.929 69.929C361.538 70.3195 361.538 70.9527 361.929 71.3432L367.586 77L361.929 82.6569C361.538 83.0474 361.538 83.6806 361.929 84.0711C362.319 84.4616 362.953 84.4616 363.343 84.0711L369.707 77.7071ZM1 77L1 78L369 78L369 77L369 76L1 76L1 77Z" fill="#888888"/>
<path d="M154.393 74V49.0215H157.627V74H154.393ZM161.529 49.0215H164.869L170.371 63.207C172.129 67.9297 173.102 70.6895 173.289 71.4863C173.43 70.5488 174.367 67.8477 176.102 63.3828L181.691 49.0215H184.486L174.66 74H171.355L161.529 49.0215ZM186.385 61.502C186.385 59.5332 186.725 57.6992 187.404 56C188.096 54.3008 188.992 52.9004 190.094 51.7988C191.195 50.6855 192.408 49.8125 193.732 49.1797C195.057 48.5469 196.363 48.2305 197.652 48.2305C198.59 48.2305 199.328 48.248 199.867 48.2832C200.406 48.3184 201.109 48.4238 201.977 48.5996C202.844 48.7754 203.781 49.0566 204.789 49.4434L204.244 52.4316C203.166 51.7871 202.199 51.3125 201.344 51.0078C200.488 50.6914 199.416 50.5332 198.127 50.5332C195.725 50.5332 193.703 51.5996 192.062 53.7324C190.434 55.8652 189.619 58.4551 189.619 61.502C189.619 64.5723 190.439 67.1738 192.08 69.3066C193.732 71.4277 195.783 72.4883 198.232 72.4883C198.689 72.4883 199.123 72.4707 199.533 72.4355C199.943 72.4004 200.289 72.3652 200.57 72.3301C200.863 72.2949 201.18 72.2188 201.52 72.1016C201.871 71.9727 202.129 71.8848 202.293 71.8379C202.469 71.791 202.715 71.6738 203.031 71.4863C203.359 71.2871 203.564 71.1641 203.646 71.1172C203.729 71.0703 203.951 70.9355 204.314 70.7129C204.678 70.4785 204.895 70.3379 204.965 70.291L205.176 72.8047C203.875 73.5781 202.756 74.0996 201.818 74.3691C200.893 74.6504 199.686 74.791 198.197 74.791C194.764 74.791 191.934 73.4727 189.707 70.8359C187.492 68.1875 186.385 65.0762 186.385 61.502Z" fill="#888888"/>
<path d="M1276.29 77.7071C1275.9 77.3166 1275.9 76.6834 1276.29 76.2929L1282.66 69.9289C1283.05 69.5384 1283.68 69.5384 1284.07 69.9289C1284.46 70.3195 1284.46 70.9526 1284.07 71.3431L1278.41 77L1284.07 82.6569C1284.46 83.0474 1284.46 83.6805 1284.07 84.0711C1283.68 84.4616 1283.05 84.4616 1282.66 84.0711L1276.29 77.7071ZM1634.71 76.2929C1635.1 76.6834 1635.1 77.3166 1634.71 77.7071L1628.34 84.0711C1627.95 84.4616 1627.32 84.4616 1626.93 84.0711C1626.54 83.6805 1626.54 83.0474 1626.93 82.6569L1632.59 77L1626.93 71.3431C1626.54 70.9526 1626.54 70.3195 1626.93 69.9289C1627.32 69.5384 1627.95 69.5384 1628.34 69.9289L1634.71 76.2929ZM1277 77V76L1634 76V77V78L1277 78V77Z" fill="#888888"/>
<path d="M1430.39 74V49.0215H1433.63V74H1430.39ZM1437.53 49.0215H1440.87L1446.37 63.207C1448.13 67.9297 1449.1 70.6895 1449.29 71.4863C1449.43 70.5488 1450.37 67.8477 1452.1 63.3828L1457.69 49.0215H1460.49L1450.66 74H1447.36L1437.53 49.0215ZM1462.38 61.502C1462.38 59.5332 1462.72 57.6992 1463.4 56C1464.1 54.3008 1464.99 52.9004 1466.09 51.7988C1467.2 50.6855 1468.41 49.8125 1469.73 49.1797C1471.06 48.5469 1472.36 48.2305 1473.65 48.2305C1474.59 48.2305 1475.33 48.248 1475.87 48.2832C1476.41 48.3184 1477.11 48.4238 1477.98 48.5996C1478.84 48.7754 1479.78 49.0566 1480.79 49.4434L1480.24 52.4316C1479.17 51.7871 1478.2 51.3125 1477.34 51.0078C1476.49 50.6914 1475.42 50.5332 1474.13 50.5332C1471.72 50.5332 1469.7 51.5996 1468.06 53.7324C1466.43 55.8652 1465.62 58.4551 1465.62 61.502C1465.62 64.5723 1466.44 67.1738 1468.08 69.3066C1469.73 71.4277 1471.78 72.4883 1474.23 72.4883C1474.69 72.4883 1475.12 72.4707 1475.53 72.4355C1475.94 72.4004 1476.29 72.3652 1476.57 72.3301C1476.86 72.2949 1477.18 72.2188 1477.52 72.1016C1477.87 71.9727 1478.13 71.8848 1478.29 71.8379C1478.47 71.791 1478.71 71.6738 1479.03 71.4863C1479.36 71.2871 1479.56 71.1641 1479.65 71.1172C1479.73 71.0703 1479.95 70.9355 1480.31 70.7129C1480.68 70.4785 1480.89 70.3379 1480.96 70.291L1481.18 72.8047C1479.88 73.5781 1478.76 74.0996 1477.82 74.3691C1476.89 74.6504 1475.69 74.791 1474.2 74.791C1470.76 74.791 1467.93 73.4727 1465.71 70.8359C1463.49 68.1875 1462.38 65.0762 1462.38 61.502Z" fill="#888888"/>
<path d="M215.707 130.709C216.098 130.319 216.098 129.686 215.707 129.295L209.343 122.931C208.953 122.541 208.319 122.541 207.929 122.931C207.538 123.322 207.538 123.955 207.929 124.345L213.586 130.002L207.929 135.659C207.538 136.05 207.538 136.683 207.929 137.073C208.319 137.464 208.953 137.464 209.343 137.073L215.707 130.709ZM150 130.002L150 131.002L215 131.002L215 130.002L215 129.002L150 129.002L150 130.002Z" fill="#888888"/>
<rect x="215.5" y="87.5022" width="148" height="88" fill="#F0F0F0" stroke="#888888"/>
<path d="M529.707 130.709C530.098 130.319 530.098 129.686 529.707 129.295L523.343 122.931C522.953 122.541 522.319 122.541 521.929 122.931C521.538 123.322 521.538 123.955 521.929 124.345L527.586 130.002L521.929 135.659C521.538 136.05 521.538 136.683 521.929 137.073C522.319 137.464 522.953 137.464 523.343 137.073L529.707 130.709ZM364 130.002L364 131.002L529 131.002L529 130.002L529 129.002L364 129.002L364 130.002Z" fill="#888888"/>
<path d="M460.5 294.002L459.638 294.509L459.928 295.002L460.5 295.002L460.5 294.002ZM529.707 294.709C530.098 294.319 530.098 293.686 529.707 293.295L523.343 286.931C522.953 286.541 522.319 286.541 521.929 286.931C521.538 287.322 521.538 287.955 521.929 288.345L527.586 294.002L521.929 299.659C521.538 300.05 521.538 300.683 521.929 301.073C522.319 301.464 522.953 301.464 523.343 301.073L529.707 294.709ZM364 130.002L363.138 130.509L459.638 294.509L460.5 294.002L461.362 293.495L364.862 129.495L364 130.002ZM460.5 294.002L460.5 295.002L529 295.002L529 294.002L529 293.002L460.5 293.002L460.5 294.002Z" fill="#888888"/>
<path d="M1105.04 294.249L1201.54 130.249L1270.04 130.249" stroke="#888888" stroke-width="2"/>
<rect x="529.5" y="87.5022" width="148" height="88" fill="#F0F0F0" stroke="#888888"/>
<path d="M743.707 130.709C744.098 130.319 744.098 129.686 743.707 129.295L737.343 122.931C736.953 122.541 736.319 122.541 735.929 122.931C735.538 123.322 735.538 123.955 735.929 124.345L741.586 130.002L735.929 135.659C735.538 136.05 735.538 136.683 735.929 137.073C736.319 137.464 736.953 137.464 737.343 137.073L743.707 130.709ZM678 130.002L678 131.002L743 131.002L743 130.002L743 129.002L678 129.002L678 130.002Z" fill="#888888"/>
<rect x="743.5" y="87.5022" width="148" height="88" fill="#F0F0F0" stroke="#888888"/>
<path d="M957.707 130.709C958.098 130.319 958.098 129.686 957.707 129.295L951.343 122.931C950.953 122.541 950.319 122.541 949.929 122.931C949.538 123.322 949.538 123.955 949.929 124.345L955.586 130.002L949.929 135.659C949.538 136.05 949.538 136.683 949.929 137.073C950.319 137.464 950.953 137.464 951.343 137.073L957.707 130.709ZM892 130.002L892 131.002L957 131.002L957 130.002L957 129.002L892 129.002L892 130.002Z" fill="#888888"/>
<rect x="957.5" y="87.5022" width="148" height="88" fill="#F0F0F0" stroke="#888888"/>
<path d="M1271.71 130.707C1272.1 130.317 1272.1 129.683 1271.71 129.293L1265.34 122.929C1264.95 122.538 1264.32 122.538 1263.93 122.929C1263.54 123.319 1263.54 123.953 1263.93 124.343L1269.59 130L1263.93 135.657C1263.54 136.047 1263.54 136.681 1263.93 137.071C1264.32 137.462 1264.95 137.462 1265.34 137.071L1271.71 130.707ZM1106 130V131H1271V130V129H1106V130Z" fill="#888888"/>
<rect x="529.5" y="249.502" width="148" height="88" fill="#F0F0F0" stroke="#888888"/>
<path d="M743.707 292.709C744.098 292.319 744.098 291.685 743.707 291.295L737.343 284.931C736.953 284.54 736.319 284.54 735.929 284.931C735.538 285.321 735.538 285.955 735.929 286.345L741.586 292.002L735.929 297.659C735.538 298.049 735.538 298.683 735.929 299.073C736.319 299.464 736.953 299.464 737.343 299.073L743.707 292.709ZM678 292.002L678 293.002L743 293.002L743 292.002L743 291.002L678 291.002L678 292.002Z" fill="#888888"/>
<rect x="743.5" y="249.502" width="148" height="88" fill="#F0F0F0" stroke="#888888"/>
<path d="M957.707 292.709C958.098 292.319 958.098 291.685 957.707 291.295L951.343 284.931C950.953 284.54 950.319 284.54 949.929 284.931C949.538 285.321 949.538 285.955 949.929 286.345L955.586 292.002L949.929 297.659C949.538 298.049 949.538 298.683 949.929 299.073C950.319 299.464 950.953 299.464 951.343 299.073L957.707 292.709ZM892 292.002L892 293.002L957 293.002L957 292.002L957 291.002L892 291.002L892 292.002Z" fill="#888888"/>
<rect x="957.5" y="249.502" width="148" height="88" fill="#F0F0F0" stroke="#888888"/>
<rect x="1271.5" y="87.5022" width="148" height="88" fill="#F0F0F0" stroke="#888888"/>
<path d="M1485.71 130.709C1486.1 130.319 1486.1 129.686 1485.71 129.295L1479.34 122.931C1478.95 122.541 1478.32 122.541 1477.93 122.931C1477.54 123.322 1477.54 123.955 1477.93 124.345L1483.59 130.002L1477.93 135.659C1477.54 136.05 1477.54 136.683 1477.93 137.073C1478.32 137.464 1478.95 137.464 1479.34 137.073L1485.71 130.709ZM1420 130.002L1420 131.002L1485 131.002L1485 130.002L1485 129.002L1420 129.002L1420 130.002Z" fill="#888888"/>
<rect x="1485.5" y="87.5022" width="148" height="88" fill="#F0F0F0" stroke="#888888"/>
<mask id="mask0_566_778" style="mask-type:alpha" maskUnits="userSpaceOnUse" x="369" y="43" width="155" height="259">
<rect x="369.5" y="43.5" width="154" height="258" fill="#D9D9D9" stroke="#309900"/>
</mask>
<g mask="url(#mask0_566_778)">
<path d="M338.5 -53.5C372.007 -53.5 402.471 -34.8634 424.615 -4.47168C446.758 25.9188 460.5 67.9771 460.5 114.5C460.5 161.023 446.758 203.081 424.615 233.472C402.471 263.863 372.007 282.5 338.5 282.5C304.993 282.5 274.529 263.863 252.385 233.472C230.242 203.081 216.5 161.023 216.5 114.5C216.5 67.9771 230.242 25.9188 252.385 -4.47168C274.529 -34.8634 304.993 -53.5 338.5 -53.5Z" stroke="#309900" stroke-width="3"/>
</g>
<mask id="mask1_566_778" style="mask-type:alpha" maskUnits="userSpaceOnUse" x="1064" y="24" width="201" height="284">
<rect x="-0.584241" y="0.398325" width="154" height="258" transform="matrix(-0.982566 -0.185916 -0.185916 0.982566 1263.37 52.7155)" fill="#D9D9D9" stroke="#309900"/>
</mask>
<g mask="url(#mask1_566_778)">
<path d="M1312.36 -36.3301C1279.44 -42.5595 1246.04 -29.9117 1218.63 -4.16679C1191.22 21.5772 1169.9 60.3473 1161.25 106.059C1152.6 151.771 1158.29 195.651 1174.39 229.628C1190.5 263.607 1216.97 287.583 1249.89 293.812C1282.81 300.041 1316.21 287.394 1343.62 261.649C1371.03 235.905 1392.35 197.135 1401 151.423C1409.65 105.711 1403.96 61.8311 1387.86 27.8537C1371.75 -6.12504 1345.28 -30.1007 1312.36 -36.3301Z" stroke="#309900" stroke-width="3"/>
</g>
<rect x="1.5" y="656.502" width="148" height="88" fill="#F0F0F0" stroke="#888888"/>
<path d="M738.207 699.707C738.598 699.317 738.598 698.683 738.207 698.293L731.843 691.929C731.453 691.538 730.819 691.538 730.429 691.929C730.038 692.319 730.038 692.953 730.429 693.343L736.086 699L730.429 704.657C730.038 705.047 730.038 705.681 730.429 706.071C730.819 706.462 731.453 706.462 731.843 706.071L738.207 699.707ZM150 699.002L150 700.002L737.5 700L737.5 699L737.5 698L150 698.002L150 699.002Z" fill="#888888"/>
<path d="M460.5 863.002L459.638 863.509L459.928 864.002L460.5 864.002L460.5 863.002ZM740.707 863.709C741.098 863.319 741.098 862.686 740.707 862.295L734.343 855.931C733.953 855.541 733.319 855.541 732.929 855.931C732.538 856.322 732.538 856.955 732.929 857.345L738.586 863.002L732.929 868.659C732.538 869.05 732.538 869.683 732.929 870.073C733.319 870.464 733.953 870.464 734.343 870.073L740.707 863.709ZM364 699.002L363.138 699.509L459.638 863.509L460.5 863.002L461.362 862.495L364.862 698.495L364 699.002ZM460.5 863.002L460.5 864.002L740 864.002L740 863.002L740 862.002L460.5 862.002L460.5 863.002Z" fill="#888888"/>
<path d="M1147.04 863.249L1243.54 699.249L1312.04 699.249" stroke="#888888" stroke-width="2"/>
<rect x="740.5" y="656.502" width="148" height="88" fill="#F0F0F0" stroke="#888888"/>
<path d="M1527.71 699.707C1528.1 699.317 1528.1 698.683 1527.71 698.293L1521.34 691.929C1520.95 691.538 1520.32 691.538 1519.93 691.929C1519.54 692.32 1519.54 692.953 1519.93 693.343L1525.59 699L1519.93 704.657C1519.54 705.047 1519.54 705.681 1519.93 706.071C1520.32 706.462 1520.95 706.462 1521.34 706.071L1527.71 699.707ZM889 699L889 700L1527 700L1527 699L1527 698L889 698L889 699Z" fill="#888888"/>
<path d="M889 863L1148 863" stroke="#888888" stroke-width="2"/>
<rect x="740.5" y="818.502" width="148" height="88" fill="#F0F0F0" stroke="#888888"/>
<rect x="1527.5" y="656.502" width="148" height="88" fill="#F0F0F0" stroke="#888888"/>
<mask id="mask2_566_778" style="mask-type:alpha" maskUnits="userSpaceOnUse" x="369" y="612" width="155" height="259">
<rect x="369.5" y="612.5" width="154" height="258" fill="#D9D9D9" stroke="#309900"/>
</mask>
<g mask="url(#mask2_566_778)">
<path d="M338.5 515.5C372.007 515.5 402.471 534.137 424.615 564.528C446.758 594.919 460.5 636.977 460.5 683.5C460.5 730.023 446.758 772.081 424.615 802.472C402.471 832.863 372.007 851.5 338.5 851.5C304.993 851.5 274.529 832.863 252.385 802.472C230.242 772.081 216.5 730.023 216.5 683.5C216.5 636.977 230.242 594.919 252.385 564.528C274.529 534.137 304.993 515.5 338.5 515.5Z" stroke="#309900" stroke-width="3"/>
</g>
<mask id="mask3_566_778" style="mask-type:alpha" maskUnits="userSpaceOnUse" x="1106" y="593" width="201" height="284">
<rect x="-0.584241" y="0.398325" width="154" height="258" transform="matrix(-0.982566 -0.185916 -0.185916 0.982566 1305.37 621.715)" fill="#D9D9D9" stroke="#309900"/>
</mask>
<g mask="url(#mask3_566_778)">
<path d="M1354.36 532.67C1321.44 526.44 1288.04 539.088 1260.63 564.833C1233.22 590.577 1211.9 629.347 1203.25 675.059C1194.6 720.771 1200.29 764.651 1216.39 798.628C1232.5 832.607 1258.97 856.583 1291.89 862.812C1324.81 869.041 1358.21 856.394 1385.62 830.649C1413.03 804.905 1434.35 766.135 1443 720.423C1451.65 674.711 1445.96 630.831 1429.86 596.854C1413.75 562.875 1387.28 538.899 1354.36 532.67Z" stroke="#309900" stroke-width="3"/>
</g>
<path d="M410.27 597.348V575.85C410.27 575.486 410.287 575.205 410.322 575.006C410.369 574.807 410.521 574.596 410.779 574.373C411.049 574.139 411.436 574.021 411.939 574.021H419.428C420.436 574.021 421.209 574.033 421.748 574.057C422.287 574.08 422.996 574.15 423.875 574.268C424.766 574.385 425.545 574.613 426.213 574.953C426.893 575.293 427.508 575.727 428.059 576.254C429.406 577.578 430.08 579.412 430.08 581.756C430.08 582.787 429.939 583.719 429.658 584.551C429.389 585.371 429.061 586.045 428.674 586.572C428.287 587.1 427.771 587.551 427.127 587.926C426.482 588.301 425.891 588.582 425.352 588.77C424.824 588.945 424.168 589.08 423.383 589.174C422.609 589.268 422.012 589.32 421.59 589.332C421.18 589.344 420.635 589.35 419.955 589.35H415.385V597.348C415.385 598.449 414.846 599 413.768 599H411.939C411.623 599 411.359 598.977 411.148 598.93C410.949 598.883 410.75 598.73 410.551 598.473C410.363 598.203 410.27 597.828 410.27 597.348ZM415.279 586.502H420.096C421.057 586.502 421.877 586.391 422.557 586.168C423.248 585.934 423.77 585.676 424.121 585.395C424.473 585.102 424.736 584.697 424.912 584.182C425.088 583.666 425.188 583.25 425.211 582.934C425.234 582.605 425.246 582.166 425.246 581.615C425.223 580.631 425.07 579.822 424.789 579.189C424.52 578.545 424.104 578.088 423.541 577.818C422.979 577.537 422.41 577.35 421.836 577.256C421.262 577.162 420.529 577.115 419.639 577.115H415.314L415.279 578.451V586.502ZM447.676 599.826C438.875 599.826 434.475 595.391 434.475 586.52C434.475 577.637 438.904 573.195 447.764 573.195C449.709 573.195 451.842 573.541 454.162 574.232C454.572 574.373 454.848 574.52 454.988 574.672C455.059 574.812 455.094 574.93 455.094 575.023C455.094 575.117 454.918 576.148 454.566 578.117C454.426 578.809 454.244 579.16 454.021 579.172C453.904 579.172 453.67 579.055 453.318 578.82C452.967 578.574 452.58 578.299 452.158 577.994C451.748 577.689 451.139 577.42 450.33 577.186C449.521 576.939 448.654 576.816 447.729 576.816C442.303 576.816 439.59 580.033 439.59 586.467C439.59 587.885 439.713 589.15 439.959 590.264C440.217 591.365 440.639 592.379 441.225 593.305C441.811 594.219 442.66 594.928 443.773 595.432C444.898 595.936 446.264 596.188 447.869 596.188C449.041 596.188 450.078 596.07 450.98 595.836C451.883 595.59 452.527 595.326 452.914 595.045C453.312 594.752 453.682 594.488 454.021 594.254C454.361 594.008 454.637 593.885 454.848 593.885C454.895 593.885 454.936 593.891 454.971 593.902C455.006 593.914 455.041 593.938 455.076 593.973C455.111 594.008 455.135 594.049 455.146 594.096C455.158 594.131 455.176 594.184 455.199 594.254C455.234 594.324 455.258 594.389 455.27 594.447C455.281 594.506 455.293 594.582 455.305 594.676C455.316 594.77 455.328 594.857 455.34 594.939C455.352 595.01 455.363 595.109 455.375 595.238C455.387 595.367 455.393 595.467 455.393 595.537C455.416 595.83 455.439 596.094 455.463 596.328C455.486 596.551 455.504 596.703 455.516 596.785C455.527 596.867 455.533 596.938 455.533 596.996C455.533 597.055 455.533 597.113 455.533 597.172C455.533 597.289 455.521 597.383 455.498 597.453C455.475 597.523 455.422 597.6 455.34 597.682C455.258 597.764 455.199 597.822 455.164 597.857C455.141 597.881 455.059 597.928 454.918 597.998L454.672 598.139C453.5 598.807 452.428 599.252 451.455 599.475C450.482 599.709 449.223 599.826 447.676 599.826ZM460.895 597.383V575.744C460.895 574.596 461.398 574.021 462.406 574.021H471.055C472.473 574.021 473.738 574.104 474.852 574.268C475.965 574.432 477.113 574.777 478.297 575.305C479.492 575.832 480.482 576.547 481.268 577.449C482.064 578.352 482.715 579.588 483.219 581.158C483.723 582.729 483.975 584.586 483.975 586.73C483.975 588.957 483.664 590.879 483.043 592.496C482.422 594.102 481.684 595.314 480.828 596.135C479.973 596.943 478.9 597.582 477.611 598.051C476.334 598.52 475.262 598.795 474.395 598.877C473.539 598.959 472.555 599 471.441 599H462.564C462.037 599 461.627 598.895 461.334 598.684C461.041 598.461 460.895 598.027 460.895 597.383ZM465.904 595.906H469.895C471.066 595.906 472.039 595.865 472.812 595.783C473.586 595.701 474.447 595.432 475.396 594.975C476.346 594.518 477.107 593.867 477.682 593.023C478.502 591.781 478.93 589.924 478.965 587.451V587.047C478.965 585.898 478.936 584.967 478.877 584.252C478.818 583.525 478.648 582.676 478.367 581.703C478.098 580.73 477.699 579.957 477.172 579.383C476.645 578.809 475.871 578.299 474.852 577.854C473.832 577.408 472.602 577.162 471.16 577.115H465.939L465.904 578.152V595.906Z" fill="#309900"/>
<path d="M1195.27 597.348V575.85C1195.27 575.486 1195.29 575.205 1195.32 575.006C1195.37 574.807 1195.52 574.596 1195.78 574.373C1196.05 574.139 1196.44 574.021 1196.94 574.021H1204.43C1205.44 574.021 1206.21 574.033 1206.75 574.057C1207.29 574.08 1208 574.15 1208.88 574.268C1209.77 574.385 1210.54 574.613 1211.21 574.953C1211.89 575.293 1212.51 575.727 1213.06 576.254C1214.41 577.578 1215.08 579.412 1215.08 581.756C1215.08 582.787 1214.94 583.719 1214.66 584.551C1214.39 585.371 1214.06 586.045 1213.67 586.572C1213.29 587.1 1212.77 587.551 1212.13 587.926C1211.48 588.301 1210.89 588.582 1210.35 588.77C1209.82 588.945 1209.17 589.08 1208.38 589.174C1207.61 589.268 1207.01 589.32 1206.59 589.332C1206.18 589.344 1205.63 589.35 1204.96 589.35H1200.38V597.348C1200.38 598.449 1199.85 599 1198.77 599H1196.94C1196.62 599 1196.36 598.977 1196.15 598.93C1195.95 598.883 1195.75 598.73 1195.55 598.473C1195.36 598.203 1195.27 597.828 1195.27 597.348ZM1200.28 586.502H1205.1C1206.06 586.502 1206.88 586.391 1207.56 586.168C1208.25 585.934 1208.77 585.676 1209.12 585.395C1209.47 585.102 1209.74 584.697 1209.91 584.182C1210.09 583.666 1210.19 583.25 1210.21 582.934C1210.23 582.605 1210.25 582.166 1210.25 581.615C1210.22 580.631 1210.07 579.822 1209.79 579.189C1209.52 578.545 1209.1 578.088 1208.54 577.818C1207.98 577.537 1207.41 577.35 1206.84 577.256C1206.26 577.162 1205.53 577.115 1204.64 577.115H1200.31L1200.28 578.451V586.502ZM1232.68 599.826C1223.88 599.826 1219.47 595.391 1219.47 586.52C1219.47 577.637 1223.9 573.195 1232.76 573.195C1234.71 573.195 1236.84 573.541 1239.16 574.232C1239.57 574.373 1239.85 574.52 1239.99 574.672C1240.06 574.812 1240.09 574.93 1240.09 575.023C1240.09 575.117 1239.92 576.148 1239.57 578.117C1239.43 578.809 1239.24 579.16 1239.02 579.172C1238.9 579.172 1238.67 579.055 1238.32 578.82C1237.97 578.574 1237.58 578.299 1237.16 577.994C1236.75 577.689 1236.14 577.42 1235.33 577.186C1234.52 576.939 1233.65 576.816 1232.73 576.816C1227.3 576.816 1224.59 580.033 1224.59 586.467C1224.59 587.885 1224.71 589.15 1224.96 590.264C1225.22 591.365 1225.64 592.379 1226.22 593.305C1226.81 594.219 1227.66 594.928 1228.77 595.432C1229.9 595.936 1231.26 596.188 1232.87 596.188C1234.04 596.188 1235.08 596.07 1235.98 595.836C1236.88 595.59 1237.53 595.326 1237.91 595.045C1238.31 594.752 1238.68 594.488 1239.02 594.254C1239.36 594.008 1239.64 593.885 1239.85 593.885C1239.89 593.885 1239.94 593.891 1239.97 593.902C1240.01 593.914 1240.04 593.938 1240.08 593.973C1240.11 594.008 1240.13 594.049 1240.15 594.096C1240.16 594.131 1240.18 594.184 1240.2 594.254C1240.23 594.324 1240.26 594.389 1240.27 594.447C1240.28 594.506 1240.29 594.582 1240.3 594.676C1240.32 594.77 1240.33 594.857 1240.34 594.939C1240.35 595.01 1240.36 595.109 1240.38 595.238C1240.39 595.367 1240.39 595.467 1240.39 595.537C1240.42 595.83 1240.44 596.094 1240.46 596.328C1240.49 596.551 1240.5 596.703 1240.52 596.785C1240.53 596.867 1240.53 596.938 1240.53 596.996C1240.53 597.055 1240.53 597.113 1240.53 597.172C1240.53 597.289 1240.52 597.383 1240.5 597.453C1240.47 597.523 1240.42 597.6 1240.34 597.682C1240.26 597.764 1240.2 597.822 1240.16 597.857C1240.14 597.881 1240.06 597.928 1239.92 597.998L1239.67 598.139C1238.5 598.807 1237.43 599.252 1236.46 599.475C1235.48 599.709 1234.22 599.826 1232.68 599.826ZM1245.89 597.383V575.744C1245.89 574.596 1246.4 574.021 1247.41 574.021H1256.05C1257.47 574.021 1258.74 574.104 1259.85 574.268C1260.96 574.432 1262.11 574.777 1263.3 575.305C1264.49 575.832 1265.48 576.547 1266.27 577.449C1267.06 578.352 1267.71 579.588 1268.22 581.158C1268.72 582.729 1268.97 584.586 1268.97 586.73C1268.97 588.957 1268.66 590.879 1268.04 592.496C1267.42 594.102 1266.68 595.314 1265.83 596.135C1264.97 596.943 1263.9 597.582 1262.61 598.051C1261.33 598.52 1260.26 598.795 1259.39 598.877C1258.54 598.959 1257.55 599 1256.44 599H1247.56C1247.04 599 1246.63 598.895 1246.33 598.684C1246.04 598.461 1245.89 598.027 1245.89 597.383ZM1250.9 595.906H1254.89C1256.07 595.906 1257.04 595.865 1257.81 595.783C1258.59 595.701 1259.45 595.432 1260.4 594.975C1261.35 594.518 1262.11 593.867 1262.68 593.023C1263.5 591.781 1263.93 589.924 1263.96 587.451V587.047C1263.96 585.898 1263.94 584.967 1263.88 584.252C1263.82 583.525 1263.65 582.676 1263.37 581.703C1263.1 580.73 1262.7 579.957 1262.17 579.383C1261.64 578.809 1260.87 578.299 1259.85 577.854C1258.83 577.408 1257.6 577.162 1256.16 577.115H1250.94L1250.9 578.152V595.906Z" fill="#309900"/>
<path d="M20.2305 702.842C20.2305 702.149 20.4902 701.548 21.0098 701.037C21.5384 700.518 22.2266 700.135 23.0742 699.889C23.9219 699.633 24.7513 699.447 25.5625 699.328C26.3737 699.201 27.1895 699.137 28.0098 699.137V698.193C27.9733 696.999 27.7318 696.138 27.2852 695.609C26.8203 695.053 26.2324 694.775 25.5215 694.775C24.0814 694.775 22.6823 695.249 21.3242 696.197L21.1602 694.324C22.5638 693.504 24.0267 693.094 25.5488 693.094C26.834 693.094 27.9095 693.518 28.7754 694.365C29.6504 695.213 30.1243 696.243 30.1973 697.455V706H28.0781V705.016C28.0052 705.089 27.832 705.212 27.5586 705.385C27.2852 705.549 26.7565 705.745 25.9727 705.973C25.1888 706.201 24.3411 706.314 23.4297 706.314C22.3633 706.314 21.5612 705.936 21.0234 705.18C20.4948 704.423 20.2305 703.644 20.2305 702.842ZM22.2812 702.814C22.2812 703.316 22.5273 703.735 23.0195 704.072C23.5117 704.41 24.1315 704.578 24.8789 704.578C25.681 704.578 26.401 704.41 27.0391 704.072C27.6862 703.735 28.0098 703.165 28.0098 702.363V700.6C27.4355 700.6 26.8477 700.636 26.2461 700.709C25.6536 700.782 25.0384 700.896 24.4004 701.051C23.7715 701.197 23.2611 701.424 22.8691 701.734C22.4772 702.044 22.2812 702.404 22.2812 702.814ZM33.2051 707.982C33.2051 706.77 33.8021 705.809 34.9961 705.098C34.5312 704.423 34.2988 703.717 34.2988 702.979C34.2988 702.14 34.5723 701.356 35.1191 700.627V700.6C34.4993 699.798 34.1895 698.872 34.1895 697.824C34.1895 696.503 34.6315 695.413 35.5156 694.557C36.4089 693.691 37.4525 693.258 38.6465 693.258C39.5944 693.258 40.5059 693.568 41.3809 694.188L41.3262 694.133C42.7116 693.559 44.179 693.267 45.7285 693.258L46.0293 695.021C45.4733 694.967 44.9219 694.939 44.375 694.939C44.3203 694.939 43.623 694.976 42.2832 695.049L42.0234 694.83C42.7526 695.824 43.1172 696.822 43.1172 697.824C43.1172 699.036 42.6888 700.103 41.832 701.023C40.9753 701.935 39.9134 702.391 38.6465 702.391C37.8262 702.391 36.974 702.108 36.0898 701.543C35.8802 701.953 35.7799 702.299 35.7891 702.582C35.7891 702.956 35.8984 703.298 36.1172 703.607C36.3451 703.917 36.7552 704.072 37.3477 704.072H39.4531C40.1094 704.072 40.6654 704.095 41.1211 704.141C41.5768 704.186 42.1465 704.291 42.8301 704.455C43.5137 704.61 44.0833 704.897 44.5391 705.316C44.9948 705.736 45.3138 706.273 45.4961 706.93C45.5872 707.303 45.6374 707.645 45.6465 707.955C45.6465 709.04 45.0358 709.947 43.8145 710.676C42.6022 711.405 41.1393 711.77 39.4258 711.77C37.694 711.77 36.222 711.405 35.0098 710.676C33.8066 709.947 33.2051 709.049 33.2051 707.982ZM35.1738 707.982C35.1738 708.465 35.4245 708.88 35.9258 709.227C36.4271 709.573 36.9831 709.814 37.5938 709.951C38.2135 710.097 38.8151 710.17 39.3984 710.17C40.5742 710.17 41.5814 709.969 42.4199 709.568C43.2585 709.167 43.6777 708.648 43.6777 708.01C43.6777 706.725 42.2878 706.082 39.5078 706.082H37.7441L36.9375 706.109C36.3997 706.164 35.9714 706.378 35.6523 706.752C35.3333 707.126 35.1738 707.536 35.1738 707.982ZM36.1445 697.824C36.1445 698.717 36.3724 699.433 36.8281 699.971C37.293 700.499 37.9082 700.764 38.6738 700.764C39.3118 700.764 39.8861 700.536 40.3965 700.08C40.9069 699.624 41.1621 698.863 41.1621 697.797C41.1621 696.904 40.9342 696.193 40.4785 695.664C40.0228 695.126 39.4121 694.857 38.6465 694.857C38.0085 694.857 37.4297 695.085 36.9102 695.541C36.3997 695.997 36.1445 696.758 36.1445 697.824ZM47.2051 707.982C47.2051 706.77 47.8021 705.809 48.9961 705.098C48.5312 704.423 48.2988 703.717 48.2988 702.979C48.2988 702.14 48.5723 701.356 49.1191 700.627V700.6C48.4993 699.798 48.1895 698.872 48.1895 697.824C48.1895 696.503 48.6315 695.413 49.5156 694.557C50.4089 693.691 51.4525 693.258 52.6465 693.258C53.5944 693.258 54.5059 693.568 55.3809 694.188L55.3262 694.133C56.7116 693.559 58.179 693.267 59.7285 693.258L60.0293 695.021C59.4733 694.967 58.9219 694.939 58.375 694.939C58.3203 694.939 57.623 694.976 56.2832 695.049L56.0234 694.83C56.7526 695.824 57.1172 696.822 57.1172 697.824C57.1172 699.036 56.6888 700.103 55.832 701.023C54.9753 701.935 53.9134 702.391 52.6465 702.391C51.8262 702.391 50.974 702.108 50.0898 701.543C49.8802 701.953 49.7799 702.299 49.7891 702.582C49.7891 702.956 49.8984 703.298 50.1172 703.607C50.3451 703.917 50.7552 704.072 51.3477 704.072H53.4531C54.1094 704.072 54.6654 704.095 55.1211 704.141C55.5768 704.186 56.1465 704.291 56.8301 704.455C57.5137 704.61 58.0833 704.897 58.5391 705.316C58.9948 705.736 59.3138 706.273 59.4961 706.93C59.5872 707.303 59.6374 707.645 59.6465 707.955C59.6465 709.04 59.0358 709.947 57.8145 710.676C56.6022 711.405 55.1393 711.77 53.4258 711.77C51.694 711.77 50.222 711.405 49.0098 710.676C47.8066 709.947 47.2051 709.049 47.2051 707.982ZM49.1738 707.982C49.1738 708.465 49.4245 708.88 49.9258 709.227C50.4271 709.573 50.9831 709.814 51.5938 709.951C52.2135 710.097 52.8151 710.17 53.3984 710.17C54.5742 710.17 55.5814 709.969 56.4199 709.568C57.2585 709.167 57.6777 708.648 57.6777 708.01C57.6777 706.725 56.2878 706.082 53.5078 706.082H51.7441L50.9375 706.109C50.3997 706.164 49.9714 706.378 49.6523 706.752C49.3333 707.126 49.1738 707.536 49.1738 707.982ZM50.1445 697.824C50.1445 698.717 50.3724 699.433 50.8281 699.971C51.293 700.499 51.9082 700.764 52.6738 700.764C53.3118 700.764 53.8861 700.536 54.3965 700.08C54.9069 699.624 55.1621 698.863 55.1621 697.797C55.1621 696.904 54.9342 696.193 54.4785 695.664C54.0228 695.126 53.4121 694.857 52.6465 694.857C52.0085 694.857 51.4297 695.085 50.9102 695.541C50.3997 695.997 50.1445 696.758 50.1445 697.824ZM62.7227 706V693.395H64.6777V695.924C64.9056 695.568 65.1745 695.227 65.4844 694.898C65.8034 694.57 66.3411 694.219 67.0977 693.846C67.8542 693.472 68.6836 693.276 69.5859 693.258V695.131C69.1029 695.149 68.6152 695.24 68.123 695.404C67.64 695.559 67.1296 695.81 66.5918 696.156C66.0632 696.503 65.6348 697.031 65.3066 697.742C64.9785 698.453 64.8145 699.283 64.8145 700.23V706H62.7227ZM70.9805 699.67C70.9805 697.82 71.541 696.261 72.6621 694.994C73.7923 693.727 75.1139 693.094 76.627 693.094C77.1829 693.094 77.7116 693.185 78.2129 693.367C78.7233 693.54 79.2337 693.832 79.7441 694.242C80.2637 694.652 80.6921 695.268 81.0293 696.088C81.3665 696.908 81.5625 697.888 81.6172 699.027V699.834H72.9355C72.9902 701.238 73.4186 702.382 74.2207 703.266C75.0228 704.141 75.9753 704.578 77.0781 704.578C78.5 704.578 79.9173 704.063 81.3301 703.033L81.5078 704.879C80.0859 705.827 78.6094 706.305 77.0781 706.314C75.3008 706.314 73.8379 705.658 72.6895 704.346C71.5501 703.024 70.9805 701.465 70.9805 699.67ZM73.0723 698.303H80.0176C79.9082 697.574 79.7077 696.958 79.416 696.457C79.1243 695.947 78.7962 695.587 78.4316 695.377C78.0671 695.158 77.7389 695.012 77.4473 694.939C77.1647 694.867 76.8913 694.83 76.627 694.83C75.679 694.83 74.8952 695.195 74.2754 695.924C73.6556 696.653 73.2546 697.446 73.0723 698.303ZM83.2168 707.982C83.2168 706.77 83.8138 705.809 85.0078 705.098C84.543 704.423 84.3105 703.717 84.3105 702.979C84.3105 702.14 84.584 701.356 85.1309 700.627V700.6C84.5111 699.798 84.2012 698.872 84.2012 697.824C84.2012 696.503 84.6432 695.413 85.5273 694.557C86.4206 693.691 87.4642 693.258 88.6582 693.258C89.6061 693.258 90.5176 693.568 91.3926 694.188L91.3379 694.133C92.7233 693.559 94.1908 693.267 95.7402 693.258L96.041 695.021C95.485 694.967 94.9336 694.939 94.3867 694.939C94.332 694.939 93.6348 694.976 92.2949 695.049L92.0352 694.83C92.7643 695.824 93.1289 696.822 93.1289 697.824C93.1289 699.036 92.7005 700.103 91.8438 701.023C90.987 701.935 89.9251 702.391 88.6582 702.391C87.8379 702.391 86.9857 702.108 86.1016 701.543C85.8919 701.953 85.7917 702.299 85.8008 702.582C85.8008 702.956 85.9102 703.298 86.1289 703.607C86.3568 703.917 86.7669 704.072 87.3594 704.072H89.4648C90.1211 704.072 90.6771 704.095 91.1328 704.141C91.5885 704.186 92.1582 704.291 92.8418 704.455C93.5254 704.61 94.0951 704.897 94.5508 705.316C95.0065 705.736 95.3255 706.273 95.5078 706.93C95.599 707.303 95.6491 707.645 95.6582 707.955C95.6582 709.04 95.0475 709.947 93.8262 710.676C92.6139 711.405 91.151 711.77 89.4375 711.77C87.7057 711.77 86.2337 711.405 85.0215 710.676C83.8184 709.947 83.2168 709.049 83.2168 707.982ZM85.1855 707.982C85.1855 708.465 85.4362 708.88 85.9375 709.227C86.4388 709.573 86.9948 709.814 87.6055 709.951C88.2253 710.097 88.8268 710.17 89.4102 710.17C90.5859 710.17 91.5931 709.969 92.4316 709.568C93.2702 709.167 93.6895 708.648 93.6895 708.01C93.6895 706.725 92.2995 706.082 89.5195 706.082H87.7559L86.9492 706.109C86.4115 706.164 85.9831 706.378 85.6641 706.752C85.3451 707.126 85.1855 707.536 85.1855 707.982ZM86.1562 697.824C86.1562 698.717 86.3841 699.433 86.8398 699.971C87.3047 700.499 87.9199 700.764 88.6855 700.764C89.3236 700.764 89.8978 700.536 90.4082 700.08C90.9186 699.624 91.1738 698.863 91.1738 697.797C91.1738 696.904 90.946 696.193 90.4902 695.664C90.0345 695.126 89.4238 694.857 88.6582 694.857C88.0202 694.857 87.4414 695.085 86.9219 695.541C86.4115 695.997 86.1562 696.758 86.1562 697.824ZM97.6953 702.842C97.6953 702.149 97.9551 701.548 98.4746 701.037C99.0033 700.518 99.6914 700.135 100.539 699.889C101.387 699.633 102.216 699.447 103.027 699.328C103.839 699.201 104.654 699.137 105.475 699.137V698.193C105.438 696.999 105.197 696.138 104.75 695.609C104.285 695.053 103.697 694.775 102.986 694.775C101.546 694.775 100.147 695.249 98.7891 696.197L98.625 694.324C100.029 693.504 101.492 693.094 103.014 693.094C104.299 693.094 105.374 693.518 106.24 694.365C107.115 695.213 107.589 696.243 107.662 697.455V706H105.543V705.016C105.47 705.089 105.297 705.212 105.023 705.385C104.75 705.549 104.221 705.745 103.438 705.973C102.654 706.201 101.806 706.314 100.895 706.314C99.8281 706.314 99.026 705.936 98.4883 705.18C97.9596 704.423 97.6953 703.644 97.6953 702.842ZM99.7461 702.814C99.7461 703.316 99.9922 703.735 100.484 704.072C100.977 704.41 101.596 704.578 102.344 704.578C103.146 704.578 103.866 704.41 104.504 704.072C105.151 703.735 105.475 703.165 105.475 702.363V700.6C104.9 700.6 104.312 700.636 103.711 700.709C103.118 700.782 102.503 700.896 101.865 701.051C101.236 701.197 100.726 701.424 100.334 701.734C99.9421 702.044 99.7461 702.404 99.7461 702.814ZM110.424 695.186V693.545H112.83V690.018H114.785V693.545H118.736V695.186H114.785V702.076C114.785 703.699 115.291 704.51 116.303 704.51C117.087 704.51 117.907 704.204 118.764 703.594L119.215 705.248C117.893 705.959 116.512 706.314 115.072 706.314C113.541 706.314 112.775 705.116 112.775 702.719V695.186H110.424ZM120.992 699.67C120.992 697.82 121.553 696.261 122.674 694.994C123.804 693.727 125.126 693.094 126.639 693.094C127.195 693.094 127.723 693.185 128.225 693.367C128.735 693.54 129.245 693.832 129.756 694.242C130.275 694.652 130.704 695.268 131.041 696.088C131.378 696.908 131.574 697.888 131.629 699.027V699.834H122.947C123.002 701.238 123.43 702.382 124.232 703.266C125.035 704.141 125.987 704.578 127.09 704.578C128.512 704.578 129.929 704.063 131.342 703.033L131.52 704.879C130.098 705.827 128.621 706.305 127.09 706.314C125.312 706.314 123.85 705.658 122.701 704.346C121.562 703.024 120.992 701.465 120.992 699.67ZM123.084 698.303H130.029C129.92 697.574 129.719 696.958 129.428 696.457C129.136 695.947 128.808 695.587 128.443 695.377C128.079 695.158 127.751 695.012 127.459 694.939C127.176 694.867 126.903 694.83 126.639 694.83C125.691 694.83 124.907 695.195 124.287 695.924C123.667 696.653 123.266 697.446 123.084 698.303Z" fill="#222222"/>
<path d="M759.23 702.842C759.23 702.149 759.49 701.548 760.01 701.037C760.538 700.518 761.227 700.135 762.074 699.889C762.922 699.633 763.751 699.447 764.562 699.328C765.374 699.201 766.189 699.137 767.01 699.137V698.193C766.973 696.999 766.732 696.138 766.285 695.609C765.82 695.053 765.232 694.775 764.521 694.775C763.081 694.775 761.682 695.249 760.324 696.197L760.16 694.324C761.564 693.504 763.027 693.094 764.549 693.094C765.834 693.094 766.91 693.518 767.775 694.365C768.65 695.213 769.124 696.243 769.197 697.455V706H767.078V705.016C767.005 705.089 766.832 705.212 766.559 705.385C766.285 705.549 765.757 705.745 764.973 705.973C764.189 706.201 763.341 706.314 762.43 706.314C761.363 706.314 760.561 705.936 760.023 705.18C759.495 704.423 759.23 703.644 759.23 702.842ZM761.281 702.814C761.281 703.316 761.527 703.735 762.02 704.072C762.512 704.41 763.132 704.578 763.879 704.578C764.681 704.578 765.401 704.41 766.039 704.072C766.686 703.735 767.01 703.165 767.01 702.363V700.6C766.436 700.6 765.848 700.636 765.246 700.709C764.654 700.782 764.038 700.896 763.4 701.051C762.771 701.197 762.261 701.424 761.869 701.734C761.477 702.044 761.281 702.404 761.281 702.814ZM772.205 707.982C772.205 706.77 772.802 705.809 773.996 705.098C773.531 704.423 773.299 703.717 773.299 702.979C773.299 702.14 773.572 701.356 774.119 700.627V700.6C773.499 699.798 773.189 698.872 773.189 697.824C773.189 696.503 773.632 695.413 774.516 694.557C775.409 693.691 776.452 693.258 777.646 693.258C778.594 693.258 779.506 693.568 780.381 694.188L780.326 694.133C781.712 693.559 783.179 693.267 784.729 693.258L785.029 695.021C784.473 694.967 783.922 694.939 783.375 694.939C783.32 694.939 782.623 694.976 781.283 695.049L781.023 694.83C781.753 695.824 782.117 696.822 782.117 697.824C782.117 699.036 781.689 700.103 780.832 701.023C779.975 701.935 778.913 702.391 777.646 702.391C776.826 702.391 775.974 702.108 775.09 701.543C774.88 701.953 774.78 702.299 774.789 702.582C774.789 702.956 774.898 703.298 775.117 703.607C775.345 703.917 775.755 704.072 776.348 704.072H778.453C779.109 704.072 779.665 704.095 780.121 704.141C780.577 704.186 781.146 704.291 781.83 704.455C782.514 704.61 783.083 704.897 783.539 705.316C783.995 705.736 784.314 706.273 784.496 706.93C784.587 707.303 784.637 707.645 784.646 707.955C784.646 709.04 784.036 709.947 782.814 710.676C781.602 711.405 780.139 711.77 778.426 711.77C776.694 711.77 775.222 711.405 774.01 710.676C772.807 709.947 772.205 709.049 772.205 707.982ZM774.174 707.982C774.174 708.465 774.424 708.88 774.926 709.227C775.427 709.573 775.983 709.814 776.594 709.951C777.214 710.097 777.815 710.17 778.398 710.17C779.574 710.17 780.581 709.969 781.42 709.568C782.258 709.167 782.678 708.648 782.678 708.01C782.678 706.725 781.288 706.082 778.508 706.082H776.744L775.938 706.109C775.4 706.164 774.971 706.378 774.652 706.752C774.333 707.126 774.174 707.536 774.174 707.982ZM775.145 697.824C775.145 698.717 775.372 699.433 775.828 699.971C776.293 700.499 776.908 700.764 777.674 700.764C778.312 700.764 778.886 700.536 779.396 700.08C779.907 699.624 780.162 698.863 780.162 697.797C780.162 696.904 779.934 696.193 779.479 695.664C779.023 695.126 778.412 694.857 777.646 694.857C777.008 694.857 776.43 695.085 775.91 695.541C775.4 695.997 775.145 696.758 775.145 697.824ZM786.205 707.982C786.205 706.77 786.802 705.809 787.996 705.098C787.531 704.423 787.299 703.717 787.299 702.979C787.299 702.14 787.572 701.356 788.119 700.627V700.6C787.499 699.798 787.189 698.872 787.189 697.824C787.189 696.503 787.632 695.413 788.516 694.557C789.409 693.691 790.452 693.258 791.646 693.258C792.594 693.258 793.506 693.568 794.381 694.188L794.326 694.133C795.712 693.559 797.179 693.267 798.729 693.258L799.029 695.021C798.473 694.967 797.922 694.939 797.375 694.939C797.32 694.939 796.623 694.976 795.283 695.049L795.023 694.83C795.753 695.824 796.117 696.822 796.117 697.824C796.117 699.036 795.689 700.103 794.832 701.023C793.975 701.935 792.913 702.391 791.646 702.391C790.826 702.391 789.974 702.108 789.09 701.543C788.88 701.953 788.78 702.299 788.789 702.582C788.789 702.956 788.898 703.298 789.117 703.607C789.345 703.917 789.755 704.072 790.348 704.072H792.453C793.109 704.072 793.665 704.095 794.121 704.141C794.577 704.186 795.146 704.291 795.83 704.455C796.514 704.61 797.083 704.897 797.539 705.316C797.995 705.736 798.314 706.273 798.496 706.93C798.587 707.303 798.637 707.645 798.646 707.955C798.646 709.04 798.036 709.947 796.814 710.676C795.602 711.405 794.139 711.77 792.426 711.77C790.694 711.77 789.222 711.405 788.01 710.676C786.807 709.947 786.205 709.049 786.205 707.982ZM788.174 707.982C788.174 708.465 788.424 708.88 788.926 709.227C789.427 709.573 789.983 709.814 790.594 709.951C791.214 710.097 791.815 710.17 792.398 710.17C793.574 710.17 794.581 709.969 795.42 709.568C796.258 709.167 796.678 708.648 796.678 708.01C796.678 706.725 795.288 706.082 792.508 706.082H790.744L789.938 706.109C789.4 706.164 788.971 706.378 788.652 706.752C788.333 707.126 788.174 707.536 788.174 707.982ZM789.145 697.824C789.145 698.717 789.372 699.433 789.828 699.971C790.293 700.499 790.908 700.764 791.674 700.764C792.312 700.764 792.886 700.536 793.396 700.08C793.907 699.624 794.162 698.863 794.162 697.797C794.162 696.904 793.934 696.193 793.479 695.664C793.023 695.126 792.412 694.857 791.646 694.857C791.008 694.857 790.43 695.085 789.91 695.541C789.4 695.997 789.145 696.758 789.145 697.824ZM801.723 706V693.395H803.678V695.924C803.906 695.568 804.174 695.227 804.484 694.898C804.803 694.57 805.341 694.219 806.098 693.846C806.854 693.472 807.684 693.276 808.586 693.258V695.131C808.103 695.149 807.615 695.24 807.123 695.404C806.64 695.559 806.13 695.81 805.592 696.156C805.063 696.503 804.635 697.031 804.307 697.742C803.979 698.453 803.814 699.283 803.814 700.23V706H801.723ZM809.98 699.67C809.98 697.82 810.541 696.261 811.662 694.994C812.792 693.727 814.114 693.094 815.627 693.094C816.183 693.094 816.712 693.185 817.213 693.367C817.723 693.54 818.234 693.832 818.744 694.242C819.264 694.652 819.692 695.268 820.029 696.088C820.367 696.908 820.562 697.888 820.617 699.027V699.834H811.936C811.99 701.238 812.419 702.382 813.221 703.266C814.023 704.141 814.975 704.578 816.078 704.578C817.5 704.578 818.917 704.063 820.33 703.033L820.508 704.879C819.086 705.827 817.609 706.305 816.078 706.314C814.301 706.314 812.838 705.658 811.689 704.346C810.55 703.024 809.98 701.465 809.98 699.67ZM812.072 698.303H819.018C818.908 697.574 818.708 696.958 818.416 696.457C818.124 695.947 817.796 695.587 817.432 695.377C817.067 695.158 816.739 695.012 816.447 694.939C816.165 694.867 815.891 694.83 815.627 694.83C814.679 694.83 813.895 695.195 813.275 695.924C812.656 696.653 812.255 697.446 812.072 698.303ZM822.217 707.982C822.217 706.77 822.814 705.809 824.008 705.098C823.543 704.423 823.311 703.717 823.311 702.979C823.311 702.14 823.584 701.356 824.131 700.627V700.6C823.511 699.798 823.201 698.872 823.201 697.824C823.201 696.503 823.643 695.413 824.527 694.557C825.421 693.691 826.464 693.258 827.658 693.258C828.606 693.258 829.518 693.568 830.393 694.188L830.338 694.133C831.723 693.559 833.191 693.267 834.74 693.258L835.041 695.021C834.485 694.967 833.934 694.939 833.387 694.939C833.332 694.939 832.635 694.976 831.295 695.049L831.035 694.83C831.764 695.824 832.129 696.822 832.129 697.824C832.129 699.036 831.701 700.103 830.844 701.023C829.987 701.935 828.925 702.391 827.658 702.391C826.838 702.391 825.986 702.108 825.102 701.543C824.892 701.953 824.792 702.299 824.801 702.582C824.801 702.956 824.91 703.298 825.129 703.607C825.357 703.917 825.767 704.072 826.359 704.072H828.465C829.121 704.072 829.677 704.095 830.133 704.141C830.589 704.186 831.158 704.291 831.842 704.455C832.525 704.61 833.095 704.897 833.551 705.316C834.007 705.736 834.326 706.273 834.508 706.93C834.599 707.303 834.649 707.645 834.658 707.955C834.658 709.04 834.048 709.947 832.826 710.676C831.614 711.405 830.151 711.77 828.438 711.77C826.706 711.77 825.234 711.405 824.021 710.676C822.818 709.947 822.217 709.049 822.217 707.982ZM824.186 707.982C824.186 708.465 824.436 708.88 824.938 709.227C825.439 709.573 825.995 709.814 826.605 709.951C827.225 710.097 827.827 710.17 828.41 710.17C829.586 710.17 830.593 709.969 831.432 709.568C832.27 709.167 832.689 708.648 832.689 708.01C832.689 706.725 831.299 706.082 828.52 706.082H826.756L825.949 706.109C825.411 706.164 824.983 706.378 824.664 706.752C824.345 707.126 824.186 707.536 824.186 707.982ZM825.156 697.824C825.156 698.717 825.384 699.433 825.84 699.971C826.305 700.499 826.92 700.764 827.686 700.764C828.324 700.764 828.898 700.536 829.408 700.08C829.919 699.624 830.174 698.863 830.174 697.797C830.174 696.904 829.946 696.193 829.49 695.664C829.035 695.126 828.424 694.857 827.658 694.857C827.02 694.857 826.441 695.085 825.922 695.541C825.411 695.997 825.156 696.758 825.156 697.824ZM836.695 702.842C836.695 702.149 836.955 701.548 837.475 701.037C838.003 700.518 838.691 700.135 839.539 699.889C840.387 699.633 841.216 699.447 842.027 699.328C842.839 699.201 843.654 699.137 844.475 699.137V698.193C844.438 696.999 844.197 696.138 843.75 695.609C843.285 695.053 842.697 694.775 841.986 694.775C840.546 694.775 839.147 695.249 837.789 696.197L837.625 694.324C839.029 693.504 840.492 693.094 842.014 693.094C843.299 693.094 844.374 693.518 845.24 694.365C846.115 695.213 846.589 696.243 846.662 697.455V706H844.543V705.016C844.47 705.089 844.297 705.212 844.023 705.385C843.75 705.549 843.221 705.745 842.438 705.973C841.654 706.201 840.806 706.314 839.895 706.314C838.828 706.314 838.026 705.936 837.488 705.18C836.96 704.423 836.695 703.644 836.695 702.842ZM838.746 702.814C838.746 703.316 838.992 703.735 839.484 704.072C839.977 704.41 840.596 704.578 841.344 704.578C842.146 704.578 842.866 704.41 843.504 704.072C844.151 703.735 844.475 703.165 844.475 702.363V700.6C843.9 700.6 843.312 700.636 842.711 700.709C842.118 700.782 841.503 700.896 840.865 701.051C840.236 701.197 839.726 701.424 839.334 701.734C838.942 702.044 838.746 702.404 838.746 702.814ZM849.424 695.186V693.545H851.83V690.018H853.785V693.545H857.736V695.186H853.785V702.076C853.785 703.699 854.291 704.51 855.303 704.51C856.087 704.51 856.907 704.204 857.764 703.594L858.215 705.248C856.893 705.959 855.512 706.314 854.072 706.314C852.541 706.314 851.775 705.116 851.775 702.719V695.186H849.424ZM859.992 699.67C859.992 697.82 860.553 696.261 861.674 694.994C862.804 693.727 864.126 693.094 865.639 693.094C866.195 693.094 866.723 693.185 867.225 693.367C867.735 693.54 868.245 693.832 868.756 694.242C869.275 694.652 869.704 695.268 870.041 696.088C870.378 696.908 870.574 697.888 870.629 699.027V699.834H861.947C862.002 701.238 862.43 702.382 863.232 703.266C864.035 704.141 864.987 704.578 866.09 704.578C867.512 704.578 868.929 704.063 870.342 703.033L870.52 704.879C869.098 705.827 867.621 706.305 866.09 706.314C864.312 706.314 862.85 705.658 861.701 704.346C860.562 703.024 859.992 701.465 859.992 699.67ZM862.084 698.303H869.029C868.92 697.574 868.719 696.958 868.428 696.457C868.136 695.947 867.808 695.587 867.443 695.377C867.079 695.158 866.751 695.012 866.459 694.939C866.176 694.867 865.903 694.83 865.639 694.83C864.691 694.83 863.907 695.195 863.287 695.924C862.667 696.653 862.266 697.446 862.084 698.303Z" fill="#222222"/>
<path d="M1546.23 702.842C1546.23 702.149 1546.49 701.548 1547.01 701.037C1547.54 700.518 1548.23 700.135 1549.07 699.889C1549.92 699.633 1550.75 699.447 1551.56 699.328C1552.37 699.201 1553.19 699.137 1554.01 699.137V698.193C1553.97 696.999 1553.73 696.138 1553.29 695.609C1552.82 695.053 1552.23 694.775 1551.52 694.775C1550.08 694.775 1548.68 695.249 1547.32 696.197L1547.16 694.324C1548.56 693.504 1550.03 693.094 1551.55 693.094C1552.83 693.094 1553.91 693.518 1554.78 694.365C1555.65 695.213 1556.12 696.243 1556.2 697.455V706H1554.08V705.016C1554.01 705.089 1553.83 705.212 1553.56 705.385C1553.29 705.549 1552.76 705.745 1551.97 705.973C1551.19 706.201 1550.34 706.314 1549.43 706.314C1548.36 706.314 1547.56 705.936 1547.02 705.18C1546.49 704.423 1546.23 703.644 1546.23 702.842ZM1548.28 702.814C1548.28 703.316 1548.53 703.735 1549.02 704.072C1549.51 704.41 1550.13 704.578 1550.88 704.578C1551.68 704.578 1552.4 704.41 1553.04 704.072C1553.69 703.735 1554.01 703.165 1554.01 702.363V700.6C1553.44 700.6 1552.85 700.636 1552.25 700.709C1551.65 700.782 1551.04 700.896 1550.4 701.051C1549.77 701.197 1549.26 701.424 1548.87 701.734C1548.48 702.044 1548.28 702.404 1548.28 702.814ZM1559.21 707.982C1559.21 706.77 1559.8 705.809 1561 705.098C1560.53 704.423 1560.3 703.717 1560.3 702.979C1560.3 702.14 1560.57 701.356 1561.12 700.627V700.6C1560.5 699.798 1560.19 698.872 1560.19 697.824C1560.19 696.503 1560.63 695.413 1561.52 694.557C1562.41 693.691 1563.45 693.258 1564.65 693.258C1565.59 693.258 1566.51 693.568 1567.38 694.188L1567.33 694.133C1568.71 693.559 1570.18 693.267 1571.73 693.258L1572.03 695.021C1571.47 694.967 1570.92 694.939 1570.38 694.939C1570.32 694.939 1569.62 694.976 1568.28 695.049L1568.02 694.83C1568.75 695.824 1569.12 696.822 1569.12 697.824C1569.12 699.036 1568.69 700.103 1567.83 701.023C1566.98 701.935 1565.91 702.391 1564.65 702.391C1563.83 702.391 1562.97 702.108 1562.09 701.543C1561.88 701.953 1561.78 702.299 1561.79 702.582C1561.79 702.956 1561.9 703.298 1562.12 703.607C1562.35 703.917 1562.76 704.072 1563.35 704.072H1565.45C1566.11 704.072 1566.67 704.095 1567.12 704.141C1567.58 704.186 1568.15 704.291 1568.83 704.455C1569.51 704.61 1570.08 704.897 1570.54 705.316C1570.99 705.736 1571.31 706.273 1571.5 706.93C1571.59 707.303 1571.64 707.645 1571.65 707.955C1571.65 709.04 1571.04 709.947 1569.81 710.676C1568.6 711.405 1567.14 711.77 1565.43 711.77C1563.69 711.77 1562.22 711.405 1561.01 710.676C1559.81 709.947 1559.21 709.049 1559.21 707.982ZM1561.17 707.982C1561.17 708.465 1561.42 708.88 1561.93 709.227C1562.43 709.573 1562.98 709.814 1563.59 709.951C1564.21 710.097 1564.82 710.17 1565.4 710.17C1566.57 710.17 1567.58 709.969 1568.42 709.568C1569.26 709.167 1569.68 708.648 1569.68 708.01C1569.68 706.725 1568.29 706.082 1565.51 706.082H1563.74L1562.94 706.109C1562.4 706.164 1561.97 706.378 1561.65 706.752C1561.33 707.126 1561.17 707.536 1561.17 707.982ZM1562.14 697.824C1562.14 698.717 1562.37 699.433 1562.83 699.971C1563.29 700.499 1563.91 700.764 1564.67 700.764C1565.31 700.764 1565.89 700.536 1566.4 700.08C1566.91 699.624 1567.16 698.863 1567.16 697.797C1567.16 696.904 1566.93 696.193 1566.48 695.664C1566.02 695.126 1565.41 694.857 1564.65 694.857C1564.01 694.857 1563.43 695.085 1562.91 695.541C1562.4 695.997 1562.14 696.758 1562.14 697.824ZM1573.21 707.982C1573.21 706.77 1573.8 705.809 1575 705.098C1574.53 704.423 1574.3 703.717 1574.3 702.979C1574.3 702.14 1574.57 701.356 1575.12 700.627V700.6C1574.5 699.798 1574.19 698.872 1574.19 697.824C1574.19 696.503 1574.63 695.413 1575.52 694.557C1576.41 693.691 1577.45 693.258 1578.65 693.258C1579.59 693.258 1580.51 693.568 1581.38 694.188L1581.33 694.133C1582.71 693.559 1584.18 693.267 1585.73 693.258L1586.03 695.021C1585.47 694.967 1584.92 694.939 1584.38 694.939C1584.32 694.939 1583.62 694.976 1582.28 695.049L1582.02 694.83C1582.75 695.824 1583.12 696.822 1583.12 697.824C1583.12 699.036 1582.69 700.103 1581.83 701.023C1580.98 701.935 1579.91 702.391 1578.65 702.391C1577.83 702.391 1576.97 702.108 1576.09 701.543C1575.88 701.953 1575.78 702.299 1575.79 702.582C1575.79 702.956 1575.9 703.298 1576.12 703.607C1576.35 703.917 1576.76 704.072 1577.35 704.072H1579.45C1580.11 704.072 1580.67 704.095 1581.12 704.141C1581.58 704.186 1582.15 704.291 1582.83 704.455C1583.51 704.61 1584.08 704.897 1584.54 705.316C1584.99 705.736 1585.31 706.273 1585.5 706.93C1585.59 707.303 1585.64 707.645 1585.65 707.955C1585.65 709.04 1585.04 709.947 1583.81 710.676C1582.6 711.405 1581.14 711.77 1579.43 711.77C1577.69 711.77 1576.22 711.405 1575.01 710.676C1573.81 709.947 1573.21 709.049 1573.21 707.982ZM1575.17 707.982C1575.17 708.465 1575.42 708.88 1575.93 709.227C1576.43 709.573 1576.98 709.814 1577.59 709.951C1578.21 710.097 1578.82 710.17 1579.4 710.17C1580.57 710.17 1581.58 709.969 1582.42 709.568C1583.26 709.167 1583.68 708.648 1583.68 708.01C1583.68 706.725 1582.29 706.082 1579.51 706.082H1577.74L1576.94 706.109C1576.4 706.164 1575.97 706.378 1575.65 706.752C1575.33 707.126 1575.17 707.536 1575.17 707.982ZM1576.14 697.824C1576.14 698.717 1576.37 699.433 1576.83 699.971C1577.29 700.499 1577.91 700.764 1578.67 700.764C1579.31 700.764 1579.89 700.536 1580.4 700.08C1580.91 699.624 1581.16 698.863 1581.16 697.797C1581.16 696.904 1580.93 696.193 1580.48 695.664C1580.02 695.126 1579.41 694.857 1578.65 694.857C1578.01 694.857 1577.43 695.085 1576.91 695.541C1576.4 695.997 1576.14 696.758 1576.14 697.824ZM1588.72 706V693.395H1590.68V695.924C1590.91 695.568 1591.17 695.227 1591.48 694.898C1591.8 694.57 1592.34 694.219 1593.1 693.846C1593.85 693.472 1594.68 693.276 1595.59 693.258V695.131C1595.1 695.149 1594.62 695.24 1594.12 695.404C1593.64 695.559 1593.13 695.81 1592.59 696.156C1592.06 696.503 1591.63 697.031 1591.31 697.742C1590.98 698.453 1590.81 699.283 1590.81 700.23V706H1588.72ZM1596.98 699.67C1596.98 697.82 1597.54 696.261 1598.66 694.994C1599.79 693.727 1601.11 693.094 1602.63 693.094C1603.18 693.094 1603.71 693.185 1604.21 693.367C1604.72 693.54 1605.23 693.832 1605.74 694.242C1606.26 694.652 1606.69 695.268 1607.03 696.088C1607.37 696.908 1607.56 697.888 1607.62 699.027V699.834H1598.94C1598.99 701.238 1599.42 702.382 1600.22 703.266C1601.02 704.141 1601.98 704.578 1603.08 704.578C1604.5 704.578 1605.92 704.063 1607.33 703.033L1607.51 704.879C1606.09 705.827 1604.61 706.305 1603.08 706.314C1601.3 706.314 1599.84 705.658 1598.69 704.346C1597.55 703.024 1596.98 701.465 1596.98 699.67ZM1599.07 698.303H1606.02C1605.91 697.574 1605.71 696.958 1605.42 696.457C1605.12 695.947 1604.8 695.587 1604.43 695.377C1604.07 695.158 1603.74 695.012 1603.45 694.939C1603.16 694.867 1602.89 694.83 1602.63 694.83C1601.68 694.83 1600.9 695.195 1600.28 695.924C1599.66 696.653 1599.25 697.446 1599.07 698.303ZM1609.22 707.982C1609.22 706.77 1609.81 705.809 1611.01 705.098C1610.54 704.423 1610.31 703.717 1610.31 702.979C1610.31 702.14 1610.58 701.356 1611.13 700.627V700.6C1610.51 699.798 1610.2 698.872 1610.2 697.824C1610.2 696.503 1610.64 695.413 1611.53 694.557C1612.42 693.691 1613.46 693.258 1614.66 693.258C1615.61 693.258 1616.52 693.568 1617.39 694.188L1617.34 694.133C1618.72 693.559 1620.19 693.267 1621.74 693.258L1622.04 695.021C1621.49 694.967 1620.93 694.939 1620.39 694.939C1620.33 694.939 1619.63 694.976 1618.29 695.049L1618.04 694.83C1618.76 695.824 1619.13 696.822 1619.13 697.824C1619.13 699.036 1618.7 700.103 1617.84 701.023C1616.99 701.935 1615.93 702.391 1614.66 702.391C1613.84 702.391 1612.99 702.108 1612.1 701.543C1611.89 701.953 1611.79 702.299 1611.8 702.582C1611.8 702.956 1611.91 703.298 1612.13 703.607C1612.36 703.917 1612.77 704.072 1613.36 704.072H1615.46C1616.12 704.072 1616.68 704.095 1617.13 704.141C1617.59 704.186 1618.16 704.291 1618.84 704.455C1619.53 704.61 1620.1 704.897 1620.55 705.316C1621.01 705.736 1621.33 706.273 1621.51 706.93C1621.6 707.303 1621.65 707.645 1621.66 707.955C1621.66 709.04 1621.05 709.947 1619.83 710.676C1618.61 711.405 1617.15 711.77 1615.44 711.77C1613.71 711.77 1612.23 711.405 1611.02 710.676C1609.82 709.947 1609.22 709.049 1609.22 707.982ZM1611.19 707.982C1611.19 708.465 1611.44 708.88 1611.94 709.227C1612.44 709.573 1612.99 709.814 1613.61 709.951C1614.23 710.097 1614.83 710.17 1615.41 710.17C1616.59 710.17 1617.59 709.969 1618.43 709.568C1619.27 709.167 1619.69 708.648 1619.69 708.01C1619.69 706.725 1618.3 706.082 1615.52 706.082H1613.76L1612.95 706.109C1612.41 706.164 1611.98 706.378 1611.66 706.752C1611.35 707.126 1611.19 707.536 1611.19 707.982ZM1612.16 697.824C1612.16 698.717 1612.38 699.433 1612.84 699.971C1613.3 700.499 1613.92 700.764 1614.69 700.764C1615.32 700.764 1615.9 700.536 1616.41 700.08C1616.92 699.624 1617.17 698.863 1617.17 697.797C1617.17 696.904 1616.95 696.193 1616.49 695.664C1616.03 695.126 1615.42 694.857 1614.66 694.857C1614.02 694.857 1613.44 695.085 1612.92 695.541C1612.41 695.997 1612.16 696.758 1612.16 697.824ZM1623.7 702.842C1623.7 702.149 1623.96 701.548 1624.47 701.037C1625 700.518 1625.69 700.135 1626.54 699.889C1627.39 699.633 1628.22 699.447 1629.03 699.328C1629.84 699.201 1630.65 699.137 1631.47 699.137V698.193C1631.44 696.999 1631.2 696.138 1630.75 695.609C1630.29 695.053 1629.7 694.775 1628.99 694.775C1627.55 694.775 1626.15 695.249 1624.79 696.197L1624.62 694.324C1626.03 693.504 1627.49 693.094 1629.01 693.094C1630.3 693.094 1631.37 693.518 1632.24 694.365C1633.12 695.213 1633.59 696.243 1633.66 697.455V706H1631.54V705.016C1631.47 705.089 1631.3 705.212 1631.02 705.385C1630.75 705.549 1630.22 705.745 1629.44 705.973C1628.65 706.201 1627.81 706.314 1626.89 706.314C1625.83 706.314 1625.03 705.936 1624.49 705.18C1623.96 704.423 1623.7 703.644 1623.7 702.842ZM1625.75 702.814C1625.75 703.316 1625.99 703.735 1626.48 704.072C1626.98 704.41 1627.6 704.578 1628.34 704.578C1629.15 704.578 1629.87 704.41 1630.5 704.072C1631.15 703.735 1631.47 703.165 1631.47 702.363V700.6C1630.9 700.6 1630.31 700.636 1629.71 700.709C1629.12 700.782 1628.5 700.896 1627.87 701.051C1627.24 701.197 1626.73 701.424 1626.33 701.734C1625.94 702.044 1625.75 702.404 1625.75 702.814ZM1636.42 695.186V693.545H1638.83V690.018H1640.79V693.545H1644.74V695.186H1640.79V702.076C1640.79 703.699 1641.29 704.51 1642.3 704.51C1643.09 704.51 1643.91 704.204 1644.76 703.594L1645.21 705.248C1643.89 705.959 1642.51 706.314 1641.07 706.314C1639.54 706.314 1638.78 705.116 1638.78 702.719V695.186H1636.42ZM1646.99 699.67C1646.99 697.82 1647.55 696.261 1648.67 694.994C1649.8 693.727 1651.13 693.094 1652.64 693.094C1653.19 693.094 1653.72 693.185 1654.22 693.367C1654.74 693.54 1655.25 693.832 1655.76 694.242C1656.28 694.652 1656.7 695.268 1657.04 696.088C1657.38 696.908 1657.57 697.888 1657.63 699.027V699.834H1648.95C1649 701.238 1649.43 702.382 1650.23 703.266C1651.03 704.141 1651.99 704.578 1653.09 704.578C1654.51 704.578 1655.93 704.063 1657.34 703.033L1657.52 704.879C1656.1 705.827 1654.62 706.305 1653.09 706.314C1651.31 706.314 1649.85 705.658 1648.7 704.346C1647.56 703.024 1646.99 701.465 1646.99 699.67ZM1649.08 698.303H1656.03C1655.92 697.574 1655.72 696.958 1655.43 696.457C1655.14 695.947 1654.81 695.587 1654.44 695.377C1654.08 695.158 1653.75 695.012 1653.46 694.939C1653.18 694.867 1652.9 694.83 1652.64 694.83C1651.69 694.83 1650.91 695.195 1650.29 695.924C1649.67 696.653 1649.27 697.446 1649.08 698.303Z" fill="#222222"/>
<path d="M759.23 867.842C759.23 867.149 759.49 866.548 760.01 866.037C760.538 865.518 761.227 865.135 762.074 864.889C762.922 864.633 763.751 864.447 764.562 864.328C765.374 864.201 766.189 864.137 767.01 864.137V863.193C766.973 861.999 766.732 861.138 766.285 860.609C765.82 860.053 765.232 859.775 764.521 859.775C763.081 859.775 761.682 860.249 760.324 861.197L760.16 859.324C761.564 858.504 763.027 858.094 764.549 858.094C765.834 858.094 766.91 858.518 767.775 859.365C768.65 860.213 769.124 861.243 769.197 862.455V871H767.078V870.016C767.005 870.089 766.832 870.212 766.559 870.385C766.285 870.549 765.757 870.745 764.973 870.973C764.189 871.201 763.341 871.314 762.43 871.314C761.363 871.314 760.561 870.936 760.023 870.18C759.495 869.423 759.23 868.644 759.23 867.842ZM761.281 867.814C761.281 868.316 761.527 868.735 762.02 869.072C762.512 869.41 763.132 869.578 763.879 869.578C764.681 869.578 765.401 869.41 766.039 869.072C766.686 868.735 767.01 868.165 767.01 867.363V865.6C766.436 865.6 765.848 865.636 765.246 865.709C764.654 865.782 764.038 865.896 763.4 866.051C762.771 866.197 762.261 866.424 761.869 866.734C761.477 867.044 761.281 867.404 761.281 867.814ZM772.205 872.982C772.205 871.77 772.802 870.809 773.996 870.098C773.531 869.423 773.299 868.717 773.299 867.979C773.299 867.14 773.572 866.356 774.119 865.627V865.6C773.499 864.798 773.189 863.872 773.189 862.824C773.189 861.503 773.632 860.413 774.516 859.557C775.409 858.691 776.452 858.258 777.646 858.258C778.594 858.258 779.506 858.568 780.381 859.188L780.326 859.133C781.712 858.559 783.179 858.267 784.729 858.258L785.029 860.021C784.473 859.967 783.922 859.939 783.375 859.939C783.32 859.939 782.623 859.976 781.283 860.049L781.023 859.83C781.753 860.824 782.117 861.822 782.117 862.824C782.117 864.036 781.689 865.103 780.832 866.023C779.975 866.935 778.913 867.391 777.646 867.391C776.826 867.391 775.974 867.108 775.09 866.543C774.88 866.953 774.78 867.299 774.789 867.582C774.789 867.956 774.898 868.298 775.117 868.607C775.345 868.917 775.755 869.072 776.348 869.072H778.453C779.109 869.072 779.665 869.095 780.121 869.141C780.577 869.186 781.146 869.291 781.83 869.455C782.514 869.61 783.083 869.897 783.539 870.316C783.995 870.736 784.314 871.273 784.496 871.93C784.587 872.303 784.637 872.645 784.646 872.955C784.646 874.04 784.036 874.947 782.814 875.676C781.602 876.405 780.139 876.77 778.426 876.77C776.694 876.77 775.222 876.405 774.01 875.676C772.807 874.947 772.205 874.049 772.205 872.982ZM774.174 872.982C774.174 873.465 774.424 873.88 774.926 874.227C775.427 874.573 775.983 874.814 776.594 874.951C777.214 875.097 777.815 875.17 778.398 875.17C779.574 875.17 780.581 874.969 781.42 874.568C782.258 874.167 782.678 873.648 782.678 873.01C782.678 871.725 781.288 871.082 778.508 871.082H776.744L775.938 871.109C775.4 871.164 774.971 871.378 774.652 871.752C774.333 872.126 774.174 872.536 774.174 872.982ZM775.145 862.824C775.145 863.717 775.372 864.433 775.828 864.971C776.293 865.499 776.908 865.764 777.674 865.764C778.312 865.764 778.886 865.536 779.396 865.08C779.907 864.624 780.162 863.863 780.162 862.797C780.162 861.904 779.934 861.193 779.479 860.664C779.023 860.126 778.412 859.857 777.646 859.857C777.008 859.857 776.43 860.085 775.91 860.541C775.4 860.997 775.145 861.758 775.145 862.824ZM786.205 872.982C786.205 871.77 786.802 870.809 787.996 870.098C787.531 869.423 787.299 868.717 787.299 867.979C787.299 867.14 787.572 866.356 788.119 865.627V865.6C787.499 864.798 787.189 863.872 787.189 862.824C787.189 861.503 787.632 860.413 788.516 859.557C789.409 858.691 790.452 858.258 791.646 858.258C792.594 858.258 793.506 858.568 794.381 859.188L794.326 859.133C795.712 858.559 797.179 858.267 798.729 858.258L799.029 860.021C798.473 859.967 797.922 859.939 797.375 859.939C797.32 859.939 796.623 859.976 795.283 860.049L795.023 859.83C795.753 860.824 796.117 861.822 796.117 862.824C796.117 864.036 795.689 865.103 794.832 866.023C793.975 866.935 792.913 867.391 791.646 867.391C790.826 867.391 789.974 867.108 789.09 866.543C788.88 866.953 788.78 867.299 788.789 867.582C788.789 867.956 788.898 868.298 789.117 868.607C789.345 868.917 789.755 869.072 790.348 869.072H792.453C793.109 869.072 793.665 869.095 794.121 869.141C794.577 869.186 795.146 869.291 795.83 869.455C796.514 869.61 797.083 869.897 797.539 870.316C797.995 870.736 798.314 871.273 798.496 871.93C798.587 872.303 798.637 872.645 798.646 872.955C798.646 874.04 798.036 874.947 796.814 875.676C795.602 876.405 794.139 876.77 792.426 876.77C790.694 876.77 789.222 876.405 788.01 875.676C786.807 874.947 786.205 874.049 786.205 872.982ZM788.174 872.982C788.174 873.465 788.424 873.88 788.926 874.227C789.427 874.573 789.983 874.814 790.594 874.951C791.214 875.097 791.815 875.17 792.398 875.17C793.574 875.17 794.581 874.969 795.42 874.568C796.258 874.167 796.678 873.648 796.678 873.01C796.678 871.725 795.288 871.082 792.508 871.082H790.744L789.938 871.109C789.4 871.164 788.971 871.378 788.652 871.752C788.333 872.126 788.174 872.536 788.174 872.982ZM789.145 862.824C789.145 863.717 789.372 864.433 789.828 864.971C790.293 865.499 790.908 865.764 791.674 865.764C792.312 865.764 792.886 865.536 793.396 865.08C793.907 864.624 794.162 863.863 794.162 862.797C794.162 861.904 793.934 861.193 793.479 860.664C793.023 860.126 792.412 859.857 791.646 859.857C791.008 859.857 790.43 860.085 789.91 860.541C789.4 860.997 789.145 861.758 789.145 862.824ZM801.723 871V858.395H803.678V860.924C803.906 860.568 804.174 860.227 804.484 859.898C804.803 859.57 805.341 859.219 806.098 858.846C806.854 858.472 807.684 858.276 808.586 858.258V860.131C808.103 860.149 807.615 860.24 807.123 860.404C806.64 860.559 806.13 860.81 805.592 861.156C805.063 861.503 804.635 862.031 804.307 862.742C803.979 863.453 803.814 864.283 803.814 865.23V871H801.723ZM809.98 864.67C809.98 862.82 810.541 861.261 811.662 859.994C812.792 858.727 814.114 858.094 815.627 858.094C816.183 858.094 816.712 858.185 817.213 858.367C817.723 858.54 818.234 858.832 818.744 859.242C819.264 859.652 819.692 860.268 820.029 861.088C820.367 861.908 820.562 862.888 820.617 864.027V864.834H811.936C811.99 866.238 812.419 867.382 813.221 868.266C814.023 869.141 814.975 869.578 816.078 869.578C817.5 869.578 818.917 869.063 820.33 868.033L820.508 869.879C819.086 870.827 817.609 871.305 816.078 871.314C814.301 871.314 812.838 870.658 811.689 869.346C810.55 868.024 809.98 866.465 809.98 864.67ZM812.072 863.303H819.018C818.908 862.574 818.708 861.958 818.416 861.457C818.124 860.947 817.796 860.587 817.432 860.377C817.067 860.158 816.739 860.012 816.447 859.939C816.165 859.867 815.891 859.83 815.627 859.83C814.679 859.83 813.895 860.195 813.275 860.924C812.656 861.653 812.255 862.446 812.072 863.303ZM822.217 872.982C822.217 871.77 822.814 870.809 824.008 870.098C823.543 869.423 823.311 868.717 823.311 867.979C823.311 867.14 823.584 866.356 824.131 865.627V865.6C823.511 864.798 823.201 863.872 823.201 862.824C823.201 861.503 823.643 860.413 824.527 859.557C825.421 858.691 826.464 858.258 827.658 858.258C828.606 858.258 829.518 858.568 830.393 859.188L830.338 859.133C831.723 858.559 833.191 858.267 834.74 858.258L835.041 860.021C834.485 859.967 833.934 859.939 833.387 859.939C833.332 859.939 832.635 859.976 831.295 860.049L831.035 859.83C831.764 860.824 832.129 861.822 832.129 862.824C832.129 864.036 831.701 865.103 830.844 866.023C829.987 866.935 828.925 867.391 827.658 867.391C826.838 867.391 825.986 867.108 825.102 866.543C824.892 866.953 824.792 867.299 824.801 867.582C824.801 867.956 824.91 868.298 825.129 868.607C825.357 868.917 825.767 869.072 826.359 869.072H828.465C829.121 869.072 829.677 869.095 830.133 869.141C830.589 869.186 831.158 869.291 831.842 869.455C832.525 869.61 833.095 869.897 833.551 870.316C834.007 870.736 834.326 871.273 834.508 871.93C834.599 872.303 834.649 872.645 834.658 872.955C834.658 874.04 834.048 874.947 832.826 875.676C831.614 876.405 830.151 876.77 828.438 876.77C826.706 876.77 825.234 876.405 824.021 875.676C822.818 874.947 822.217 874.049 822.217 872.982ZM824.186 872.982C824.186 873.465 824.436 873.88 824.938 874.227C825.439 874.573 825.995 874.814 826.605 874.951C827.225 875.097 827.827 875.17 828.41 875.17C829.586 875.17 830.593 874.969 831.432 874.568C832.27 874.167 832.689 873.648 832.689 873.01C832.689 871.725 831.299 871.082 828.52 871.082H826.756L825.949 871.109C825.411 871.164 824.983 871.378 824.664 871.752C824.345 872.126 824.186 872.536 824.186 872.982ZM825.156 862.824C825.156 863.717 825.384 864.433 825.84 864.971C826.305 865.499 826.92 865.764 827.686 865.764C828.324 865.764 828.898 865.536 829.408 865.08C829.919 864.624 830.174 863.863 830.174 862.797C830.174 861.904 829.946 861.193 829.49 860.664C829.035 860.126 828.424 859.857 827.658 859.857C827.02 859.857 826.441 860.085 825.922 860.541C825.411 860.997 825.156 861.758 825.156 862.824ZM836.695 867.842C836.695 867.149 836.955 866.548 837.475 866.037C838.003 865.518 838.691 865.135 839.539 864.889C840.387 864.633 841.216 864.447 842.027 864.328C842.839 864.201 843.654 864.137 844.475 864.137V863.193C844.438 861.999 844.197 861.138 843.75 860.609C843.285 860.053 842.697 859.775 841.986 859.775C840.546 859.775 839.147 860.249 837.789 861.197L837.625 859.324C839.029 858.504 840.492 858.094 842.014 858.094C843.299 858.094 844.374 858.518 845.24 859.365C846.115 860.213 846.589 861.243 846.662 862.455V871H844.543V870.016C844.47 870.089 844.297 870.212 844.023 870.385C843.75 870.549 843.221 870.745 842.438 870.973C841.654 871.201 840.806 871.314 839.895 871.314C838.828 871.314 838.026 870.936 837.488 870.18C836.96 869.423 836.695 868.644 836.695 867.842ZM838.746 867.814C838.746 868.316 838.992 868.735 839.484 869.072C839.977 869.41 840.596 869.578 841.344 869.578C842.146 869.578 842.866 869.41 843.504 869.072C844.151 868.735 844.475 868.165 844.475 867.363V865.6C843.9 865.6 843.312 865.636 842.711 865.709C842.118 865.782 841.503 865.896 840.865 866.051C840.236 866.197 839.726 866.424 839.334 866.734C838.942 867.044 838.746 867.404 838.746 867.814ZM849.424 860.186V858.545H851.83V855.018H853.785V858.545H857.736V860.186H853.785V867.076C853.785 868.699 854.291 869.51 855.303 869.51C856.087 869.51 856.907 869.204 857.764 868.594L858.215 870.248C856.893 870.959 855.512 871.314 854.072 871.314C852.541 871.314 851.775 870.116 851.775 867.719V860.186H849.424ZM859.992 864.67C859.992 862.82 860.553 861.261 861.674 859.994C862.804 858.727 864.126 858.094 865.639 858.094C866.195 858.094 866.723 858.185 867.225 858.367C867.735 858.54 868.245 858.832 868.756 859.242C869.275 859.652 869.704 860.268 870.041 861.088C870.378 861.908 870.574 862.888 870.629 864.027V864.834H861.947C862.002 866.238 862.43 867.382 863.232 868.266C864.035 869.141 864.987 869.578 866.09 869.578C867.512 869.578 868.929 869.063 870.342 868.033L870.52 869.879C869.098 870.827 867.621 871.305 866.09 871.314C864.312 871.314 862.85 870.658 861.701 869.346C860.562 868.024 859.992 866.465 859.992 864.67ZM862.084 863.303H869.029C868.92 862.574 868.719 861.958 868.428 861.457C868.136 860.947 867.808 860.587 867.443 860.377C867.079 860.158 866.751 860.012 866.459 859.939C866.176 859.867 865.903 859.83 865.639 859.83C864.691 859.83 863.907 860.195 863.287 860.924C862.667 861.653 862.266 862.446 862.084 863.303Z" fill="#222222"/>
<path d="M817.232 536.768C818.209 537.744 819.791 537.744 820.768 536.768L836.678 520.858C837.654 519.882 837.654 518.299 836.678 517.322C835.701 516.346 834.118 516.346 833.142 517.322L819 531.464L804.858 517.322C803.882 516.346 802.299 516.346 801.322 517.322C800.346 518.299 800.346 519.882 801.322 520.858L817.232 536.768ZM820.768 410.232C819.791 409.256 818.209 409.256 817.232 410.232L801.322 426.142C800.346 427.118 800.346 428.701 801.322 429.678C802.299 430.654 803.882 430.654 804.858 429.678L819 415.536L833.142 429.678C834.118 430.654 835.701 430.654 836.678 429.678C837.654 428.701 837.654 427.118 836.678 426.142L820.768 410.232ZM819 535L821.5 535L821.5 412L819 412L816.5 412L816.5 535L819 535Z" fill="#888888"/>
</svg>
